<?xml version="1.0" standalone="no"?>
<!DOCTYPE svg PUBLIC "-//W3C//DTD SVG 1.1//EN" "http://www.w3.org/Graphics/SVG/1.1/DTD/svg11.dtd" >
<svg xmlns="http://www.w3.org/2000/svg">
<metadata></metadata>
<defs>
<font id="gt_sectra_fineregular_italic" horiz-adv-x="1269" >
<font-face units-per-em="2048" ascent="1536" descent="-512" />
<missing-glyph horiz-adv-x="491" />
<glyph unicode="&#xfb01;" horiz-adv-x="1089" d="M-262 -481l35 174h235q29 37 46.5 86t27.5 100l174 1002h-164l6 30l39 33h131l15 90q16 88 59 160t111 115l243 155h391l-32 -164h-496q-33 -35 -51.5 -87t-28.5 -105l-28 -166h346l145 49l43 -41l-151 -862l182 125l24 -33l-276 -213l-123 68l150 852l-54 -6h-299 l-159 -926q-16 -86 -57.5 -155.5t-110.5 -116.5l-248 -164h-125z" />
<glyph unicode="&#xfb02;" horiz-adv-x="1091" d="M-262 -481l35 174h235q29 37 46.5 86t27.5 100l174 1002h-164l6 30l39 33h131l15 90q16 88 59 160t111 115l243 155h355l24 -22l-237 -1354l180 125l24 -33l-276 -213l-125 68l150 846h-353l-159 -926q-16 -86 -57.5 -155.5t-110.5 -116.5l-248 -164h-125zM451 942h352 l65 379l-77 -21h-232q-33 -35 -51.5 -87t-28.5 -105z" />
<glyph unicode="&#xfb03;" horiz-adv-x="1628" d="M-262 -481l35 174h235q29 37 46.5 86t27.5 100l174 1002h-164l6 30l39 33h131l15 90q16 88 59 160t111 115l243 155h320l-248 -164h-209q-33 -35 -51.5 -87t-28.5 -105l-28 -166h356l18 92q16 88 59.5 160t108.5 115l244 155h389l-33 -164h-493q-31 -35 -50.5 -87 t-29.5 -105l-29 -166h342l148 49l43 -41l-152 -862l182 125l25 -33l-276 -213l-123 68l149 852l-53 -6h-295l-160 -926q-16 -86 -59 -155.5t-111 -116.5l-245 -164h-117l35 174h225q29 37 46 86t28 100l174 1002h-359l-159 -926q-16 -86 -57.5 -155.5t-110.5 -116.5 l-248 -164h-125z" />
<glyph unicode="&#xfb04;" horiz-adv-x="1634" d="M-262 -481l35 174h235q29 37 46.5 86t27.5 100l174 1002h-164l6 30l39 33h131l15 90q16 88 59 160t111 115l243 155h320l-248 -164h-209q-33 -35 -51.5 -87t-28.5 -105l-28 -166h356l18 92q16 88 59.5 160t108.5 115l244 155h354l25 -22l-238 -1354l183 125l22 -33 l-274 -213l-125 68l149 846h-352l-160 -926q-16 -86 -59 -155.5t-111 -116.5l-245 -164h-117l35 174h225q29 37 46 86t28 100l174 1002h-359l-159 -926q-16 -86 -57.5 -155.5t-110.5 -116.5l-248 -164h-125zM991 942h352l68 379l-76 -21h-235q-31 -35 -50.5 -87t-29.5 -105z " />
<glyph horiz-adv-x="0" />
<glyph horiz-adv-x="0" />
<glyph unicode="&#xd;" horiz-adv-x="737" />
<glyph unicode=" "  horiz-adv-x="491" />
<glyph unicode="&#x09;" horiz-adv-x="491" />
<glyph unicode="&#xa0;" horiz-adv-x="491" />
<glyph unicode="!" horiz-adv-x="643" d="M125 2l8 109l29 90l143 10l55 -10l-10 -105l-28 -94l-146 -12zM270 449l11 407l92 598h209l-121 -596l-133 -409h-58z" />
<glyph unicode="&#x22;" horiz-adv-x="815" d="M207 940q8 14 32.5 57t51 90.5t48 88.5t23.5 51l-112 6l10 117l35 96l141 10l68 -10l-10 -113l-33 -100l-213 -311zM539 940q4 8 17 31.5t30.5 53.5t35 62.5t33 61.5t25.5 50.5t12 27.5l-110 6l10 117l37 96l139 10l68 -10l-11 -113l-30 -100l-215 -311z" />
<glyph unicode="#" horiz-adv-x="1245" d="M57 412l25 75h272l111 365h-272l22 76h272l123 413h82l-123 -413h328l123 413h82l-123 -413h274l-22 -76h-273l-110 -365h272l-22 -75h-275l-121 -412h-81l120 412h-327l-121 -412h-82l121 412h-275zM438 487h326l110 365h-325z" />
<glyph unicode="$" horiz-adv-x="1101" d="M74 90l65 316h78l4 -197q35 -39 100.5 -79t143.5 -62l100 571l-145 115q-74 57 -125 129.5t-51 177.5q0 113 72.5 200t222.5 142l170 63l24 133h55l-22 -131q115 -4 193.5 -30.5t132.5 -63.5l-58 -317h-65l-29 217q-78 74 -190 102l-91 -514l158 -125q37 -29 69 -61.5 t55.5 -71.5t36.5 -88t13 -113q0 -59 -19.5 -116.5t-58.5 -106.5t-94 -87t-127 -62l-190 -66l-23 -129h-55l22 129q-123 6 -216 41t-156 84zM438 1167q0 -47 12.5 -82.5t35 -66.5t54 -58.5t70.5 -60.5l84 487q-12 2 -25.5 3.5t-25.5 1.5q-113 -35 -159 -92.5t-46 -131.5z M518 55q31 -8 72 -8q106 35 153.5 103.5t47.5 160.5q0 49 -11.5 88t-33 72t-53 62.5t-70.5 60.5l-11 6z" />
<glyph unicode="%" horiz-adv-x="1652" d="M86 -10l1376 1454h105l-1374 -1454h-107zM211 979q0 74 16.5 141.5t55.5 125t102.5 102.5t155.5 73l39 13q115 0 179 -75t64 -188q0 -72 -16 -140t-55 -126.5t-101.5 -103.5t-154.5 -70l-41 -14q-104 0 -174 70.5t-70 191.5zM358 999q-2 -98 33 -154.5t98 -66.5 q47 12 82 48t58.5 88.5t35 114t11.5 122.5q0 100 -34 156.5t-93 64.5q-49 -12 -85 -48t-59.5 -87t-35 -113.5t-11.5 -124.5zM838 262q0 74 15 141.5t54 125t102.5 102.5t155.5 74l39 12q115 0 179.5 -75t64.5 -187q0 -72 -16.5 -140.5t-55.5 -127t-101.5 -104.5t-154.5 -71 l-39 -12q-106 0 -175.5 70.5t-67.5 191.5zM983 283q0 -100 35 -156.5t98 -67.5q45 12 81 49t58.5 88.5t35 113t12.5 122.5q-2 102 -36 158.5t-93 64.5q-49 -12 -85 -48t-59.5 -88t-35 -113.5t-11.5 -122.5z" />
<glyph unicode="&#x26;" horiz-adv-x="1191" d="M63 334q0 147 90.5 255.5t262.5 174.5l94 37q-39 8 -79 30.5t-72.5 58.5t-54 84t-21.5 103q0 68 29.5 121t84 95t128 75t161.5 57l162 45q29 -4 63.5 -16t69.5 -29.5t65.5 -36t49.5 -30.5l-111 -152q-31 27 -69.5 53.5t-78.5 50t-79 42t-70 28.5q-94 -45 -150.5 -109.5 t-56.5 -162.5q0 -59 18.5 -108.5t47 -85t61.5 -57t62 -23.5l-8 -50q-74 -2 -142.5 -34.5t-122 -88t-86 -129t-32.5 -157.5q0 -139 72.5 -235.5t221.5 -100.5q57 25 101.5 57.5t76 77.5t53 103.5t36.5 132.5l24 147h-119l-30 -47h-31l35 190h440l31 45h31l-37 -188h-131 l-29 -168q-12 -68 -32.5 -122t-62.5 -100t-109.5 -84t-176.5 -73q-10 -4 -30.5 -10t-45 -13t-47 -14.5t-35.5 -9.5q-102 0 -181 27.5t-132 78t-81 118t-28 147.5z" />
<glyph unicode="'" horiz-adv-x="479" d="M203 938q8 14 32.5 57t51 90.5t48 88t23.5 51.5l-112 8l10 115l37 98l141 8l66 -8l-11 -115l-30 -98l-215 -313z" />
<glyph unicode="(" horiz-adv-x="708" d="M141 246q0 184 30 334.5t100.5 294t190.5 289t302 317.5l29 -23q-121 -121 -214.5 -256t-159 -287.5t-99 -325.5t-33.5 -370q0 -186 39 -357t125 -311l-33 -34q-72 98 -123 187t-86 177t-51.5 177t-16.5 188z" />
<glyph unicode=")" horiz-adv-x="708" d="M-127 -461q242 242 374 545t132 694q0 186 -38 357.5t-126 312.5l33 33q72 -100 124 -189.5t87 -176.5t51 -175t16 -186q0 -184 -29.5 -336t-101 -294t-191.5 -288.5t-302 -318.5z" />
<glyph unicode="*" horiz-adv-x="708" d="M127 1165l70 164l231 -143l-31 278h172l-84 -278l260 141l39 -162l-284 -32l192 -189l-147 -102l-92 256l-140 -256l-131 100l232 191z" />
<glyph unicode="+" d="M106 475v92h484v488h90v-488h481v-92h-481v-475h-90v475h-484z" />
<glyph unicode="," horiz-adv-x="481" d="M61 -276q8 12 31 52t48.5 85t46 83t22.5 48l-105 8l9 119l37 100l143 10l65 -10l-8 -115l-33 -104l-213 -297z" />
<glyph unicode="-" horiz-adv-x="794" d="M102 516l17 98h624l-16 -98h-625z" />
<glyph unicode="." horiz-adv-x="499" d="M82 -2l10 121l33 100l158 10l57 -10l-10 -117l-31 -104l-158 -10z" />
<glyph unicode="/" horiz-adv-x="983" d="M-268 -471l1267 1941h86l-1265 -1941h-88z" />
<glyph unicode="0" horiz-adv-x="1122" d="M88 389q0 88 21.5 168t71.5 150.5t130 129t197 103.5l137 51q94 0 171 -31.5t131 -87t84 -132t30 -167.5q0 -88 -22.5 -168.5t-71.5 -151.5t-130 -129t-198 -104l-135 -51q-94 0 -171 32t-131.5 89t-84 133t-29.5 166zM297 420q0 -152 69.5 -251t190.5 -128 q135 61 214 189t79 313q0 152 -71.5 251t-188.5 128q-135 -59 -214 -187.5t-79 -314.5z" />
<glyph unicode="1" horiz-adv-x="917" d="M10 -2l2 49l320 23l131 741l10 23l-41 -17l-319 -98l-13 45l527 215h59l-162 -909l312 -23l-13 -49l-403 4z" />
<glyph unicode="2" horiz-adv-x="1021" d="M-14 57l354 240q193 135 291 238.5t98 214.5q0 76 -41 117.5t-119 45.5l-129 -39l-106 -237h-137l20 221l436 133q76 0 131.5 -17.5t91 -46t53 -67.5t17.5 -84q0 -78 -47 -147.5t-122 -130t-165 -113.5t-176 -100l-241 -133l184 26h598v-43l-66 -135h-895z" />
<glyph unicode="3" horiz-adv-x="919" d="M-86 -485l33 180h448q100 66 144.5 139.5t44.5 163.5q0 113 -81 187.5t-263 78.5l-9 37l115 59q141 66 219 148t78 205q0 78 -45 134t-123 66l-119 -41l-104 -239h-133l18 223l418 135q76 0 131 -19.5t91 -54t54.5 -80.5t18.5 -98q0 -66 -29.5 -121t-80 -101t-121 -84 t-152.5 -64q164 -10 247 -95.5t83 -212.5q0 -98 -45 -168.5t-115 -124t-155 -92t-165 -71.5l-215 -90h-188z" />
<glyph unicode="4" horiz-adv-x="1142" d="M10 53l791 914h225l-8 -47l-909 -854l53 14h450l47 268l183 117h32l-69 -385h280l-14 -86h-280l-84 -461h-191l82 461h-551z" />
<glyph unicode="5" horiz-adv-x="964" d="M-70 -477l35 182h443q98 72 154 162t56 196q0 117 -57 197t-182 80q-57 0 -104.5 -14.5t-106.5 -44.5l-74 -52l-31 33l216 705h688l-6 -31l-64 -150h-606l-150 -471l303 177q119 0 195 -33t119 -82t58 -108.5t15 -110.5q0 -104 -44 -189.5t-114.5 -152t-158.5 -116.5 t-178 -85l-211 -92h-195z" />
<glyph unicode="6" horiz-adv-x="1093" d="M98 426q0 184 73 352t202 306.5t307 237.5t389 146l16 -53q-150 -35 -273.5 -113.5t-216.5 -177t-152.5 -205t-80.5 -198.5l340 207q63 -2 120 -33t99 -82t66.5 -118.5t24.5 -141.5q0 -176 -88 -315.5t-277 -206.5l-166 -62q-84 0 -153.5 31t-120.5 89t-80 143t-29 194z M315 442q0 -156 62.5 -264t183.5 -129q59 25 103.5 70t74 101t44 122t14.5 131q0 80 -15.5 137.5t-40 95t-55.5 55t-63 17.5q-43 0 -87 -17.5t-110 -58.5l-76 -45q-12 -37 -23.5 -89t-11.5 -126z" />
<glyph unicode="7" horiz-adv-x="987" d="M14 -475l6 43l846 1227l-30 -17h-756l33 183h876l25 -31l-826 -1405h-174z" />
<glyph unicode="8" horiz-adv-x="1083" d="M82 289q0 90 36 159.5t94 123t131 92t146 67.5q-47 37 -88 73t-71.5 76t-48 86t-17.5 101q0 129 92.5 221t243.5 139l123 39q76 0 141.5 -17t113.5 -50t74.5 -80t26.5 -107q0 -84 -31.5 -147.5t-84 -112.5t-117 -85t-129.5 -66q51 -41 100 -81t88 -83t62.5 -94t23.5 -117 q0 -150 -109.5 -252t-308.5 -170l-104 -39q-74 0 -143.5 22.5t-124 63.5t-87 101.5t-32.5 136.5zM293 348q0 -68 21.5 -123t56.5 -95t80 -63.5t94 -25.5q223 115 223 319q0 55 -21.5 102.5t-55.5 88.5t-77 79t-84 72q-104 -66 -170.5 -150.5t-66.5 -203.5zM473 1137 q0 -138 205 -306q102 68 149 150t47 182q0 92 -52 156.5t-171 75.5q-100 -45 -139 -109.5t-39 -148.5z" />
<glyph unicode="9" horiz-adv-x="1075" d="M20 -457q147 35 271.5 114t217.5 178t152.5 205.5t81.5 199.5l-337 -205q-63 2 -121 32.5t-101 82t-67.5 119t-24.5 141.5q0 174 88 314t279 208l168 59q84 0 153.5 -29.5t119.5 -88t78 -143.5t28 -193q0 -184 -73 -353.5t-202 -307.5t-307 -237.5t-387 -144.5zM307 492 q0 -82 15.5 -140.5t41 -96.5t57.5 -55.5t62 -17.5q45 0 87 18.5t108 57.5l76 45q12 37 23 90t11 129t-15 142.5t-46 119t-77 85t-107 42.5q-59 -23 -103.5 -66.5t-74 -101t-44 -122t-14.5 -129.5z" />
<glyph unicode=":" horiz-adv-x="542" d="M92 -2l10 121l33 100l158 10l57 -10l-10 -117l-31 -104l-157 -10zM213 764l10 119l31 100l158 10l59 -10l-10 -117l-33 -102l-156 -10z" />
<glyph unicode=";" horiz-adv-x="544" d="M53 -276q8 12 32 52t49.5 85t47 83t23.5 48l-111 8l10 119l37 100l142 10l69 -10l-10 -115l-33 -104l-211 -297zM215 764l10 119l31 100l160 10l57 -10l-10 -117l-33 -102l-156 -10z" />
<glyph unicode="&#x3c;" d="M102 549v78l1065 481v-107l-934 -413l934 -412v-110z" />
<glyph unicode="=" d="M106 260v90h1057v-90h-1057zM106 655v93h1057v-93h-1057z" />
<glyph unicode="&#x3e;" d="M102 66v110l936 412l-936 413v107l1065 -481v-78z" />
<glyph unicode="?" horiz-adv-x="825" d="M135 2l8 109l29 90l143 10l56 -10l-11 -105l-28 -94l-144 -12zM250 1163l14 193l289 98q80 0 141.5 -24.5t104.5 -66.5t65.5 -98.5t22.5 -119.5q0 -133 -81 -222t-222 -145l-148 -63l-94 -279h-74l41 254l150 90q104 63 160.5 152.5t56.5 193.5q0 45 -9.5 89.5t-30 80 t-53 61t-79.5 34.5l-49 -19l-86 -209h-119z" />
<glyph unicode="@" horiz-adv-x="1898" d="M154 508q0 150 51 285t144 246.5t222 196.5t283 136l197 60q190 0 337.5 -45.5t247 -124t150.5 -187t51 -235.5q0 -135 -51 -254t-138 -208t-201 -141.5t-237 -56.5l-118 131l69 230q-51 -63 -104 -129q-45 -55 -98.5 -119t-98.5 -117q-53 2 -102 25.5t-87 63.5 t-60.5 95.5t-22.5 124.5q0 86 26.5 163t73.5 143.5t113.5 119t146.5 88.5l221 101l230 -129l-164 -742q70 2 147.5 43t141 117t105.5 181.5t42 238.5q0 117 -42 217t-119.5 173t-187.5 115t-247 42t-271 -57.5t-239.5 -163t-170 -253t-64.5 -327.5q0 -176 60.5 -305 t159.5 -213t228 -126t266 -42q63 0 121 11t108 27.5t92 36t75 36.5l20 -37q-59 -33 -124.5 -61.5t-131 -51.5t-126 -39t-109.5 -24q-182 0 -333 55t-258.5 154.5t-165.5 235.5t-58 296zM762 557q0 -94 43 -151.5t121 -69.5l225 250l74 305l-174 110q-86 -41 -142.5 -96 t-89.5 -116.5t-45 -122t-12 -109.5z" />
<glyph unicode="A" horiz-adv-x="1374" d="M-49 -2l2 49l160 16l759 1352l158 49l135 -1401l154 -16l-10 -49l-273 4l-270 -4l2 49l174 19l-37 428h-467l-233 -428l174 -19l-12 -49l-211 4zM471 557h428l-51 617v75z" />
<glyph unicode="B" horiz-adv-x="1185" d="M-16 -2v49l172 19l202 1308l-163 15l10 47q76 -2 135 -2q51 -2 93 -2h46h51.5t106.5 2q68 0 151 2q92 0 163 -22.5t117 -60.5t69.5 -90.5t23.5 -109.5q0 -113 -82 -208t-248 -142l-100 -29q102 -4 182 -30.5t134.5 -71.5t82 -102.5t27.5 -123.5q0 -82 -30.5 -143 t-82 -107t-119 -81t-143.5 -62l-153 -55l-367 4zM371 80h327q117 66 169.5 155t52.5 195q0 59 -17.5 112.5t-53.5 94.5t-92.5 64.5t-133.5 23.5h-154zM479 786h111q63 0 124.5 28t109.5 75t78 110.5t30 137.5q0 104 -54.5 171.5t-172.5 67.5h-134z" />
<glyph unicode="C" horiz-adv-x="1253" d="M104 586q0 119 31 242.5t99.5 235.5t180 203t273.5 146l182 60q141 0 240.5 -42t159.5 -85l-17 -332h-65l-70 241q-51 43 -136 78t-220 51q-209 -84 -316.5 -276.5t-107.5 -450.5q0 -139 31.5 -246.5t89 -183t135.5 -120t170 -58.5q68 27 130 60.5t103 66.5l150 273h67 l-71 -345l-463 -141q-129 0 -235.5 45t-182.5 126t-117 195.5t-41 256.5z" />
<glyph unicode="D" horiz-adv-x="1357" d="M-16 47l170 19l202 1308l-166 15l11 47l272 -4l311 4h11q119 0 217 -41q104 -43 178 -121t115 -186.5t41 -239.5q0 -121 -34 -242t-103.5 -226.5t-177 -189.5t-255.5 -133l-180 -59l-328 4l-282 -4zM369 86h319q90 47 167 122t133 172t89 212t33 242q0 131 -29.5 230 t-82 167.5t-123 104.5t-152.5 38h-154z" />
<glyph unicode="E" horiz-adv-x="1183" d="M-16 -2v49l172 19l202 1304l-163 19l10 47l274 -4l750 4l-29 -363h-45l-88 295l-498 4l-90 -592l269 4l129 230h41l-58 -262l-29 -263h-40l-56 230l-266 4l-102 -660l530 3l172 317h51l-76 -385l-790 4z" />
<glyph unicode="F" horiz-adv-x="1126" d="M-16 -2v49l172 19l202 1304l-163 19l10 47l268 -4l756 4l-29 -363h-45l-88 295l-498 4l-94 -616l268 4l129 229h41l-57 -264l-29 -260h-41l-53 229l-266 4l-100 -635l237 -16l-10 -49l-340 4z" />
<glyph unicode="G" horiz-adv-x="1339" d="M84 573q0 123 34 251t107.5 242t190 206t282.5 145l183 53q135 0 237.5 -45t155.5 -94l-19 -311h-65l-64 219q-51 53 -143 97t-219 48q-100 -45 -183 -112.5t-141.5 -158.5t-90.5 -206.5t-32 -253.5q0 -143 32 -250.5t87.5 -182.5t132 -118t166.5 -57q59 20 118.5 50 t88.5 52l68 447l-158 20l10 43l256 2l225 3v-48l-122 -20l-74 -483l-506 -148q-127 0 -229.5 45t-175 125t-112.5 192.5t-40 247.5z" />
<glyph unicode="H" horiz-adv-x="1409" d="M-16 -2v49l172 19l200 1304l-163 19l12 47l264 -4l262 4v-47l-162 -19l-94 -592h567l91 592l-160 19l10 47l266 -4l260 4l-2 -47l-161 -19l-201 -1304l160 -19l-11 -49l-262 4l-270 -4l-2 49l172 19l100 645h-565l-98 -645l159 -19l-10 -49l-264 4z" />
<glyph unicode="I" horiz-adv-x="634" d="M-16 -2v49l172 19l202 1304l-163 19l8 47l266 -4l264 4l-2 -47l-162 -19l-200 -1304l159 -19l-10 -49l-266 4z" />
<glyph unicode="J" horiz-adv-x="624" d="M-170 -358l35 180h223q39 76 58.5 152.5t35.5 187.5l185 1208l-162 19l10 47l266 -4l262 4v-47l-161 -19l-183 -1173q-20 -135 -70 -220.5t-122 -144.5l-244 -190h-133z" />
<glyph unicode="K" horiz-adv-x="1388" d="M-16 -2v49l174 19l198 1304l-161 19l10 47l262 -4l254 4l2 -47l-154 -19l-88 -584l25 17l637 567l-156 19l6 47l232 -4l194 4v-47l-176 -19l-655 -579l117 -27l493 -696l111 -21l-11 -49l-176 4l-151 -4l-482 729l-14 31l-106 -692l151 -19l-10 -49l-258 4z" />
<glyph unicode="L" horiz-adv-x="1107" d="M-16 -2v49l170 19l202 1304l-163 19l12 47l264 -4l268 4v-47l-168 -19l-202 -1307l454 3l211 319h49l-100 -387l-729 4z" />
<glyph unicode="M" horiz-adv-x="1769" d="M-16 -2v49l161 19l205 1296l-168 27l13 47l225 -4l198 4l238 -1162v-61l612 1223l158 -4l242 4l2 -47l-164 -19l-203 -1304l158 -19l-12 -49l-250 4l-275 -4v49l172 19l183 1177l32 115l-684 -1360h-122l-263 1264l-10 94l-196 -1290l163 -19l-10 -49l-201 4z" />
<glyph unicode="N" horiz-adv-x="1400" d="M-16 -2v49l170 19l206 1296l-159 27l10 47l192 -4l168 4l504 -1084l17 -78l165 1096l-165 19l10 47l203 -4l208 4v-47l-172 -19l-215 -1370h-127l-555 1229l-10 82l-194 -1245l163 -19l-10 -49l-200 4z" />
<glyph unicode="O" horiz-adv-x="1398" d="M104 580q0 123 31 250.5t99.5 242.5t177 206t264.5 140l160 51q123 0 223 -44t173 -123.5t111.5 -193.5t38.5 -253q0 -123 -30.5 -250t-99 -240.5t-178 -205.5t-265.5 -144l-160 -53q-123 0 -223 44t-172 125t-111 194.5t-39 253.5zM338 612q0 -135 29.5 -238.5t82 -174 t123 -110.5t150.5 -48q98 37 177 112.5t133 179t84 229.5t30 261t-30 238.5t-81 174.5t-121.5 110.5t-150.5 48.5q-96 -33 -175 -109t-134.5 -180.5t-86 -231.5t-30.5 -262z" />
<glyph unicode="P" horiz-adv-x="1132" d="M-16 -2v49l170 19l204 1308l-165 15l12 47l266 -4l348 4q94 0 169 -22.5t125 -63.5t77 -98.5t27 -127.5q0 -156 -105.5 -262t-325.5 -184l-135 -49h-198l-86 -563l233 -19l-8 -49l-346 4zM467 715h270q47 25 91 59.5t79 82.5t55.5 106.5t20.5 130.5q0 129 -62.5 202.5 t-193.5 77.5h-158z" />
<glyph unicode="Q" horiz-adv-x="1398" d="M104 580q0 123 31 250.5t99.5 242.5t177 206t264.5 140l160 51q123 0 223 -44t173 -123.5t111.5 -193.5t38.5 -253q0 -123 -30.5 -250t-99 -240.5t-178 -205.5t-265.5 -144l-123 -43l78 -14l229 -127l160 -106l70 -31l-97 -39l-299 111l-211 198q-115 6 -209 52 t-161.5 126t-104.5 190.5t-37 246.5zM338 612q0 -135 29.5 -238.5t82 -174t123 -110.5t150.5 -48q98 37 177 112.5t133 179t84 229.5t30 261t-30 238.5t-81 174.5t-121.5 110.5t-150.5 48.5q-96 -33 -175 -109t-134.5 -180.5t-86 -231.5t-30.5 -262z" />
<glyph unicode="R" horiz-adv-x="1304" d="M-16 -2v49l170 19l204 1308l-165 15l12 47l268 -4l346 4q94 0 169 -22.5t126 -63.5t78 -96.5t27 -120.5q0 -80 -29 -141.5t-81 -109.5t-125 -85t-161 -66l-129 -41l193 -80l256 -544l92 -21l-6 -47l-170 4l-133 -4l-291 668l-10 10h-164l-94 -610l186 -19l-12 -49l-295 4 zM473 758h258q47 23 92 54.5t81 74.5t57.5 98t21.5 125q0 121 -60.5 191.5t-193.5 74.5h-160z" />
<glyph unicode="S" horiz-adv-x="1005" d="M31 90l65 316h78l4 -197q25 -27 66 -55.5t90 -51t104.5 -38t108.5 -17.5q106 35 153.5 103.5t47.5 160.5q0 49 -11.5 88t-33 72t-53.5 62.5t-70 60.5l-203 160q-74 57 -125 129.5t-51 177.5q0 113 72.5 200t222.5 142l180 67q135 0 224 -27.5t149 -68.5l-58 -317h-65 l-29 217q-53 53 -132 84t-165 33q-113 -35 -159 -92.5t-46 -131.5q0 -47 12.5 -82.5t36 -66.5t55 -59.5t72.5 -61.5l203 -160q37 -29 68.5 -61.5t55.5 -71.5t37 -88t13 -113q0 -59 -19.5 -116.5t-58.5 -106.5t-94 -87t-127 -62l-194 -68q-141 0 -248 37t-176 90z" />
<glyph unicode="T" horiz-adv-x="1171" d="M133 1067l57 369l549 -4l549 4l-57 -369h-51l-66 303l-280 2l-201 -1306l180 -19l-10 -49l-289 4l-270 -4v49l176 19l203 1306l-279 -2l-160 -303h-51z" />
<glyph unicode="U" horiz-adv-x="1308" d="M156 1389l10 47l264 -4l268 4l2 -47l-163 -19l-146 -905q-6 -42 -6 -81q0 -40 6 -76q12 -72 51 -126.5t104.5 -86.5t162.5 -32q63 25 115.5 56t92 79t66.5 116.5t43 166.5l143 889l-165 19l10 47l205 -4l219 4l2 -47l-170 -19l-142 -885q-14 -86 -37.5 -159.5t-67.5 -132 t-111.5 -103.5t-170.5 -74l-163 -53q-127 0 -211 36t-132.5 102.5t-60.5 159.5q-5 37 -5 78q0 62 11 132l137 899z" />
<glyph unicode="V" horiz-adv-x="1308" d="M154 1389l8 47l268 -4l268 4v-47l-174 -19l187 -1128l-11 -62l517 1190l-173 19l9 47l223 -4l168 4v-47l-129 -17l-615 -1358l-149 -45l-244 1403z" />
<glyph unicode="W" horiz-adv-x="1898" d="M152 1389l12 47l266 -4l246 4v-47l-156 -19l164 -1128l-12 -58l346 877l-45 311l-117 17l10 47l230 -4l274 4v-47l-184 -19l164 -1128l-11 -58l471 1186l-172 19l11 47l217 -4l170 4v-47l-129 -17l-564 -1356l-155 -47l-144 932l3 55l-371 -940l-154 -47l-215 1403z" />
<glyph unicode="X" horiz-adv-x="1353" d="M-43 -2v49l135 19l531 626l-342 680l-115 17l10 47l234 -4l276 4l-2 -47l-164 -19l242 -500l2 -36l450 536l-167 19l10 47l221 -4l162 4v-47l-121 -17l-510 -600l356 -706l105 -19l-10 -49l-220 4l-286 -4v49l168 19l-254 532v39l-465 -571l166 -19l-11 -49l-223 4z" />
<glyph unicode="Y" horiz-adv-x="1259" d="M154 1389l8 47l235 -4l281 4v-47l-170 -19l254 -668v-40l436 708l-174 19l8 47l215 -4l150 4v-47l-109 -17l-491 -782l-80 -524l201 -19l-13 -49l-305 4l-307 -4v49l211 19l80 522l-314 784z" />
<glyph unicode="Z" horiz-adv-x="1105" d="M-18 53l921 1284l62 41l-570 -10l-178 -315h-47l63 381h924l27 -54l-916 -1282l-57 -37l606 7l213 348h47l-96 -416h-991z" />
<glyph unicode="[" horiz-adv-x="669" d="M20 -471q43 244 80 455q16 90 33 181t30 172t25.5 145.5t18.5 101.5q2 20 11 68t20.5 113.5t24.5 142.5t28 155q33 182 69 401l166 -2l246 2l-8 -47l-277 -14q-35 -188 -65 -350q-12 -70 -25.5 -139.5t-25 -131t-20.5 -111.5t-13 -77q-6 -33 -16.5 -93.5t-23.5 -137 t-27.5 -163.5t-28.5 -173q-35 -203 -74 -437l270 -14l-8 -47l-237 2z" />
<glyph unicode="\" horiz-adv-x="849" d="M195 1470h79l586 -1941h-82z" />
<glyph unicode="]" horiz-adv-x="669" d="M-154 -471l7 47l278 14q39 221 74 412q14 82 29.5 164t28.5 155.5t24.5 132t17.5 91.5q4 27 13.5 78t20.5 116.5t23.5 140t24.5 148.5q29 172 64 375l-273 14l8 47l230 -2l182 2q-41 -231 -76 -424q-14 -82 -28.5 -163.5t-26.5 -150.5t-21.5 -119t-13.5 -68 q-6 -37 -17.5 -99.5t-24.5 -140.5t-28.5 -165t-29.5 -173q-37 -201 -76 -432l-180 2z" />
<glyph unicode="^" horiz-adv-x="761" d="M158 942l336 502h57l174 -502h-104l-113 389l-246 -389h-104z" />
<glyph unicode="_" horiz-adv-x="1216" d="M-55 -211l12 80h1139l-13 -80h-1138z" />
<glyph unicode="`" horiz-adv-x="993" d="M367 1475h200l41 -357h-49z" />
<glyph unicode="a" horiz-adv-x="983" d="M76 336q0 199 106.5 347t290.5 241l141 67q27 0 64 -7t77 -18.5t78.5 -25.5t73.5 -31l-145 -819l184 123l23 -33l-277 -213l-123 70l31 174l16 45l-305 -287q-49 18 -92 47t-74.5 72t-50 104.5t-18.5 143.5zM270 416q0 -102 36 -177t100 -116l210 182l91 516 q-20 14 -48 25.5t-58 21t-58.5 14.5t-50.5 5q-100 -68 -161 -190.5t-61 -280.5z" />
<glyph unicode="b" horiz-adv-x="956" d="M80 68l227 1294l-196 -53l-15 41l367 116l39 -34l-113 -644l-18 -45l305 248q51 -12 95 -38.5t77 -70.5t52.5 -106.5t19.5 -144.5q0 -92 -25 -181.5t-73 -167t-118.5 -140t-160.5 -101.5l-164 -72q-78 6 -150.5 31t-148.5 68zM279 156q47 -39 108.5 -62.5t106.5 -23.5 q63 29 106 81t69.5 116.5t38 136t11.5 137.5q0 135 -38 206.5t-97 98.5l-209 -156z" />
<glyph unicode="c" horiz-adv-x="843" d="M78 360q0 190 106.5 333t311.5 233l141 65q41 -4 100.5 -26.5t102.5 -49.5l-101 -157q-55 41 -117.5 71.5t-119.5 53.5q-119 -68 -172.5 -180.5t-53.5 -245.5q0 -78 18.5 -137.5t49.5 -101.5t71 -68.5t83 -38.5q25 10 58.5 27.5t68 38t66.5 40t54 33.5l27 -33 q-51 -41 -116.5 -84t-135.5 -90l-110 -74q-61 0 -122 25.5t-107 76t-74.5 123t-28.5 166.5z" />
<glyph unicode="d" horiz-adv-x="1030" d="M78 348q0 186 100.5 339t286.5 237l151 67q25 -2 59 -10t70 -20l72 401l-194 -53l-15 41l365 116l41 -34l-238 -1342l180 123l25 -33l-274 -213l-125 70l30 176l19 43l-301 -287q-51 16 -96.5 46t-80 76t-55 109.5t-20.5 147.5zM276 422q0 -111 38 -181.5t106 -113.5 l211 182l90 514q-23 14 -52.5 25.5t-62.5 21t-63.5 14.5t-53.5 5q-53 -35 -92 -85t-66.5 -111.5t-41 -130t-13.5 -140.5z" />
<glyph unicode="e" horiz-adv-x="872" d="M78 354q0 92 26.5 180.5t77.5 164t127 136t176 99.5l148 57q88 -16 144.5 -65t56.5 -152q0 -35 -7.5 -75t-29.5 -91l-523 -162q-2 -6 -2 -13v-13q2 -72 23.5 -126t53.5 -92t72 -60.5t83 -30.5q25 12 57.5 29.5t66.5 36t65.5 37.5t56.5 36l26 -35q-47 -35 -115.5 -83 t-140.5 -91l-110 -72q-68 2 -128.5 31t-105.5 79t-71.5 119.5t-26.5 155.5zM276 502l3 -10l329 129q14 35 19.5 64.5t5.5 59.5q0 72 -33 109t-80 47q-109 -53 -171 -158.5t-73 -240.5z" />
<glyph unicode="f" horiz-adv-x="614" d="M-262 -481l35 174h235q29 37 46.5 86t27.5 100l174 1002h-164l6 30l39 33h131l15 90q16 88 59 160t111 115l243 155h148l-31 -164h-254q-33 -35 -51.5 -87t-28.5 -105l-28 -166h215l-15 -61h-213l-159 -926q-16 -86 -57.5 -155.5t-110.5 -116.5l-248 -164h-125z" />
<glyph unicode="g" horiz-adv-x="974" d="M29 -481l30 174h383q43 35 84 110.5t56 159.5l43 248l18 45l-301 -287q-51 18 -97 49t-80 76t-54.5 106.5t-20.5 145.5q0 186 101.5 338t293.5 238l154 69q27 0 63.5 -7t76.5 -17.5t80 -25.5t75 -34l-172 -954q-12 -70 -87 -140.5t-181 -148.5l-207 -145h-258zM289 424 q0 -111 38 -183.5t103 -113.5l211 178l94 512q-41 29 -107.5 48.5t-121.5 21.5q-106 -72 -161.5 -197t-55.5 -266z" />
<glyph unicode="h" horiz-adv-x="1038" d="M86 0l240 1362l-195 -53l-16 41l368 116l39 -34l-112 -639l-17 -31l340 229q123 -1 169 -65q33 -46 33 -110q0 -25 -5 -52l-119 -676l182 125l25 -33l-279 -213l-123 68l119 674q4 24 4 45q0 31 -9 53q-15 37 -68 37q-41 0 -88.5 -23.5t-100.5 -58.5l-80 -55l-125 -707 h-182z" />
<glyph unicode="i" horiz-adv-x="571" d="M70 840l354 151l43 -41l-152 -862l183 125l22 -33l-276 -213l-123 68l147 833l-186 -65zM324 1221l8 104l37 86l63 12l117 -12v-102l-37 -88l-59 -13z" />
<glyph unicode="j" horiz-adv-x="555" d="M-233 -481l32 176h244q27 41 41 87t25 97l176 989l-187 -65l-16 37l356 151l41 -41l-172 -985q-16 -84 -60 -156.5t-114 -119.5l-248 -170h-118zM336 1221l8 104l39 86l61 12l117 -12v-102l-37 -88l-57 -13z" />
<glyph unicode="k" horiz-adv-x="980" d="M86 0l238 1364l-195 -51l-14 39l366 114l39 -32l-149 -859l18 7l395 389h174l-38 -199h-201q-12 -4 -43 -23.5t-63.5 -44t-63.5 -48t-43 -33.5l-72 -60l129 -39l205 -432l170 119l23 -35l-271 -209l-106 51l-219 525l-97 -543h-182z" />
<glyph unicode="l" horiz-adv-x="550" d="M104 35l234 1327l-195 -53l-14 41l367 116l39 -34l-238 -1344l182 125l25 -33l-277 -213z" />
<glyph unicode="m" horiz-adv-x="1556" d="M70 840l354 151l43 -43l-29 -157l-14 -31l324 231q116 1 160 -59q35 -48 36 -120q0 -16 -2 -34l-4 -14l317 227q121 -1 165 -65q32 -47 32 -112q0 -24 -4 -50l-119 -674l182 123l23 -33l-279 -213l-120 68l118 674q5 27 5 49q0 29 -9 49q-16 35 -59 35q-37 0 -82 -21.5 t-92 -56.5l-82 -59l-127 -705h-184l125 709q4 23 4 43q0 32 -10 55q-16 37 -58 37q-37 0 -82 -23.5t-92 -58.5l-86 -57l-125 -705h-182l151 868l-184 -65z" />
<glyph unicode="n" horiz-adv-x="1069" d="M70 840l354 151l43 -43l-27 -155l-16 -31l338 229q123 -1 169 -65q34 -48 34 -114q0 -23 -4 -48l-121 -676l182 125l25 -33l-277 -213l-123 68l119 674q5 26 5 47q1 29 -9 51q-16 37 -70 37q-41 0 -89 -23.5t-99 -58.5l-80 -55l-125 -707h-182l151 868l-184 -65z" />
<glyph unicode="o" horiz-adv-x="966" d="M78 371q0 184 98 335.5t285 229.5l137 55q66 0 126 -25.5t105 -74.5t72 -123t27 -172q0 -92 -24.5 -179t-73 -161t-120 -133.5t-163.5 -95.5l-139 -58q-66 0 -126.5 27t-105.5 77t-71.5 124.5t-26.5 173.5zM276 412q0 -90 18.5 -153.5t48.5 -106.5t69 -68t82 -33 q68 25 112.5 82t72.5 128t39 147.5t11 144.5q0 90 -17.5 154.5t-47 106.5t-69.5 64.5t-85 32.5q-68 -27 -112 -82t-71.5 -125.5t-39 -147.5t-11.5 -144z" />
<glyph unicode="p" horiz-adv-x="1009" d="M39 -471l233 1339l-184 -65l-14 37l356 151l41 -41l-27 -159l-18 -46l297 246q104 -16 177 -104t73 -256q0 -92 -23.5 -180.5t-68.5 -165t-114 -140t-157 -102.5l-161 -74q-37 6 -73 17.5t-71 31.5l-6 -63l-76 -426h-184zM332 152q47 -41 109.5 -62.5t107.5 -21.5 q66 31 108.5 84t68.5 117.5t36 135t10 136.5q0 133 -41 207.5t-102 95.5l-203 -152z" />
<glyph unicode="q" horiz-adv-x="952" d="M78 334q0 96 27.5 187t79 169t125 140.5t165.5 101.5l146 59q33 -2 72.5 -8t81.5 -16.5t80 -24.5t67 -29l-246 -1384h-184l118 674l19 45l-297 -279q-111 35 -182.5 123t-71.5 242zM276 428q0 -117 41 -190.5t105 -104.5l209 168l92 530q-25 14 -55.5 25.5t-61.5 19 t-59.5 11.5t-48.5 4q-57 -31 -98.5 -82t-69 -112.5t-41 -131t-13.5 -137.5z" />
<glyph unicode="r" horiz-adv-x="784" d="M70 840l354 151l37 -37l-49 -297l-33 -110l278 424h150l-41 -203h-148q-10 -6 -37.5 -37t-57 -66.5t-57.5 -69.5t-38 -48l-41 -51l-88 -496h-184l155 868l-188 -65z" />
<glyph unicode="s" horiz-adv-x="747" d="M10 82l101 143q25 -16 56.5 -36.5t67 -42t72.5 -42t74 -38.5q53 16 77.5 50t24.5 81q0 43 -16 79.5t-59 77.5l-172 150q-41 35 -66 82t-25 102q0 76 56.5 139.5t185.5 112.5l137 51q41 -6 104.5 -31.5t110.5 -52.5l-96 -145q-49 35 -120.5 72.5t-129.5 62.5 q-43 -16 -66.5 -48t-23.5 -73t16.5 -74.5t55.5 -68.5l168 -144q57 -53 80.5 -100t23.5 -110q0 -170 -205 -240l-204 -70q-23 8 -54.5 22.5t-65.5 31t-62.5 33t-45.5 26.5z" />
<glyph unicode="t" horiz-adv-x="653" d="M98 883l6 28l39 35h125l23 127l170 148h41l-51 -279h231l-12 -59h-230l-139 -797l258 129l23 -37l-351 -211l-122 64l149 852h-160z" />
<glyph unicode="u" horiz-adv-x="1060" d="M59 846l355 145l43 -41l-125 -708q-4 -25 -5 -44q0 -34 14 -52q21 -28 56 -29q43 0 91.5 27.5t101.5 62.5l80 55l121 699h184l-152 -871l185 119l24 -33l-287 -209l-110 66l22 141l17 33l-338 -238q-61 0 -102 18.5t-65 49.5t-30 72q-3 18 -3 36q0 25 5 52l121 673 l-186 -61z" />
<glyph unicode="v" horiz-adv-x="897" d="M-6 842l352 149l41 -41l4 -841l-8 -46l405 642l-149 182l174 104l74 -90l-39 -229l-455 -699l-176 41l-22 854l-185 -65z" />
<glyph unicode="w" horiz-adv-x="1363" d="M-6 842l352 149l41 -41l8 -829l-8 -47l291 467l-10 356l192 72l8 -848l-8 -47l400 633l-148 180l170 104l72 -90l-35 -223l-457 -705l-168 41l-10 385l8 64l-305 -490l-170 41l-22 854l-185 -65z" />
<glyph unicode="x" horiz-adv-x="980" d="M-6 -10l43 192h168q10 2 33.5 25.5t50 54.5t52.5 62.5t42 52.5l49 65l-131 437l-190 -68l-15 39l330 141l49 -35l98 -333v-50l248 398h180l-40 -191h-152q-12 -4 -32.5 -24.5t-43 -49t-46 -58.5t-38.5 -48l-51 -63l135 -445l187 117l22 -33l-283 -207l-98 56l-102 329v45 l-283 -409h-182z" />
<glyph unicode="y" horiz-adv-x="937" d="M-18 -481l38 190h191l250 324l-148 -29l-123 862l-182 -65l-18 35l323 157l70 -35l104 -880l344 635l-149 174l172 104l74 -88l-31 -221l-350 -621l-328 -542h-237z" />
<glyph unicode="z" horiz-adv-x="843" d="M-18 14l675 768l-69 -26l-371 47l-59 -80l-35 12l115 248l542 -59l62 43l35 -25l-656 -752l64 25l411 -55l72 84l33 -13l-121 -260l-576 80l-84 -63z" />
<glyph unicode="{" horiz-adv-x="653" d="M74 512l2 20q53 18 86 45t51 60t27.5 70.5t15.5 80.5l68 390q12 66 41.5 119t74.5 89.5t99.5 57t115.5 20.5h99l-9 -47h-94q-27 0 -55.5 -10t-54 -35.5t-46 -67.5t-28.5 -106l-66 -403q-6 -37 -17 -73t-33.5 -68.5t-58.5 -62.5t-91 -52l137 -107l-121 -637 q-12 -63 -6 -105t23.5 -67.5t43 -36t54.5 -10.5h94l-8 -47h-103q-123 0 -188.5 78t-42.5 209l104 585z" />
<glyph unicode="|" horiz-adv-x="794" d="M199 -502l348 1972h84l-346 -1972h-86z" />
<glyph unicode="}" horiz-adv-x="653" d="M-143 -471l10 47h92q29 0 57.5 10.5t54 36t44 67.5t28.5 105l80 477q10 59 57.5 129t139.5 111q-6 2 -28.5 19.5t-46 39t-41 40t-17.5 24.5l104 563q12 63 7 105.5t-22.5 68t-42 35.5t-50.5 10h-97l9 47h100q125 0 189.5 -77.5t41.5 -208.5l-92 -523q0 -6 14.5 -25.5 t35 -41t39 -39t24.5 -21.5l-2 -18q-45 -14 -77 -40t-52.5 -58.5t-31.5 -69.5t-17 -74l-80 -452q-12 -66 -42 -119t-75 -90t-99.5 -57.5t-115.5 -20.5h-98z" />
<glyph unicode="~" horiz-adv-x="1421" d="M117 408l110 180l203 47l733 -121l115 137h47l-113 -180l-200 -45l-731 121l-117 -139h-47z" />
<glyph unicode="&#xa1;" horiz-adv-x="643" d="M74 -502l123 598l135 410h55l-10 -410l-92 -598h-211zM299 754l8 104l29 94l145 11l54 -11l-11 -110l-26 -88l-146 -11z" />
<glyph unicode="&#xa2;" horiz-adv-x="884" d="M92 360q0 190 106.5 333t311.5 233l49 22l33 172h67l-24 -137l16 8q41 -4 100.5 -26.5t102.5 -49.5l-100 -157q-55 41 -118 71.5t-120 53.5q-119 -68 -172 -180.5t-53 -245.5q0 -78 18.5 -137.5t49 -101.5t70.5 -68.5t83 -38.5q25 10 58.5 27.5t68.5 38t66.5 40 t54.5 33.5l26 -33q-51 -41 -116.5 -84t-134.5 -90l-91 -59l-26 -148h-66l19 137q-55 10 -105.5 40t-88.5 79t-61.5 116.5t-23.5 151.5z" />
<glyph unicode="&#xa3;" horiz-adv-x="1126" d="M20 0l5 47l192 57l102 592h-167l4 27l39 37h137l45 268q14 78 39.5 138.5t69.5 107.5t111 83t163 64q4 0 30.5 5.5t57.5 10.5t59.5 6t36.5 -5q33 -10 80 -33t82 -45l-109 -139q-55 51 -119.5 90.5t-127.5 62.5q-57 -29 -101.5 -91t-60.5 -161l-64 -362h361l-13 -66 l-362 2l-72 -413q-6 -35 -18 -69t-28.5 -63.5t-35 -52t-32.5 -32.5l499 2l152 262h72l-86 -330l-691 4z" />
<glyph unicode="&#xa4;" d="M102 330l150 127q-57 98 -45 231q12 178 143 305l-112 137l71 62l115 -139q61 43 133 67.5t148 24.5q72 0 139 -24.5t114 -65.5l160 135l49 -62l-155 -133q33 -49 49 -113.5t8 -136.5q-6 -84 -41 -157.5t-94 -132.5l102 -123l-73 -62l-99 121q-66 -47 -141.5 -74.5 t-155.5 -27.5t-149.5 27.5t-116.5 76.5l-147 -127zM283 690q-6 -70 13 -130t59 -104t97.5 -69t129.5 -25q74 0 145.5 31t128.5 83t94 122t43 147q6 70 -13 129.5t-60 103.5t-99.5 69.5t-130.5 25.5q-76 0 -146.5 -30.5t-127 -83t-92 -122t-41.5 -147.5z" />
<glyph unicode="&#xa5;" horiz-adv-x="1247" d="M135 1389l8 47l248 -4l268 4v-47l-172 -19l248 -668v-40l428 708l-174 19l10 47l215 -4l150 4v-47l-109 -17l-485 -782l-6 -31h283l-11 -57h-280l-21 -135h275l-9 -60h-274l-37 -241l201 -19l-10 -49l-308 4l-307 -4v49l211 19l37 241h-264l10 60h262l21 135h-256l8 57 h258l4 29l-305 784z" />
<glyph unicode="&#xa6;" horiz-adv-x="794" d="M199 -502l155 881h84l-155 -881h-84zM391 590l156 880h84l-156 -880h-84z" />
<glyph unicode="&#xa7;" horiz-adv-x="1091" d="M10 -309l123 133q25 -25 59.5 -57.5t76.5 -65.5t86 -63.5t85 -51.5l13 11q72 33 113.5 87t41.5 115q0 49 -11 89t-35.5 80t-63.5 83t-97 96q-74 70 -125 121t-82.5 96.5t-47 88.5t-15.5 96q0 109 71.5 188.5t188.5 126.5q-35 41 -54.5 90.5t-19.5 108.5q0 117 77 215 t249 145l162 45q25 -8 56.5 -24.5t62 -37t59.5 -43t51 -42.5l-131 -115q-23 25 -53.5 50.5t-65 50t-71.5 45t-68 32.5l-16 -10q-72 -35 -106 -90t-34 -127q0 -76 35 -144.5t125 -146.5l322 -293v-84q0 -78 -23.5 -135t-62.5 -99t-90.5 -71.5t-104.5 -50.5 q47 -51 71.5 -111.5t24.5 -123.5q0 -117 -62 -200t-204 -130l-235 -70q-33 14 -73 38t-78 51.5t-70.5 54t-53.5 49.5zM295 639q0 -82 48 -145.5t140 -151.5q10 -10 37 -35.5t56.5 -53.5t54 -53.5t33.5 -33.5q66 35 102.5 96.5t36.5 140.5v62l-211 188q-16 14 -42 39 t-52.5 51.5t-49 51t-32.5 39.5q-121 -70 -121 -195z" />
<glyph unicode="&#xa8;" horiz-adv-x="1026" d="M248 1204l6 96l35 76l63 13l92 -13v-90l-34 -82l-60 -12zM592 1204l4 96l37 76l63 13l92 -13v-90l-34 -82l-60 -12z" />
<glyph unicode="&#xa9;" horiz-adv-x="1714" d="M141 729q0 162 54.5 288t152.5 217t236.5 148.5t308.5 81.5q152 -2 289 -53t240.5 -148.5t165 -237.5t61.5 -320q0 -162 -54.5 -288t-153 -217t-236.5 -148.5t-308 -82.5q-152 2 -289 53.5t-240.5 148.5t-165 237.5t-61.5 320.5zM260 729q0 -180 62.5 -311t157.5 -217 t206 -128t207 -42q125 0 240.5 46t202.5 132t139.5 211t52.5 285q0 121 -29 219t-78 176t-113.5 135t-134 95t-141 56.5t-135.5 18.5q-125 0 -240.5 -46t-203.5 -132t-140.5 -212t-52.5 -286zM477 700q0 102 33 180t93.5 132.5t145.5 87.5t189 45q96 0 169 -24.5t122 -53.5 v-186h-45l-66 145q-29 29 -73 52.5t-111 23.5q-123 0 -202 -93.5t-79 -279.5q0 -78 18.5 -148.5t56.5 -125t93.5 -87t128.5 -32.5q53 0 94 20.5t68 44.5l80 164h47l-16 -192q-66 -27 -140.5 -50.5t-162.5 -33.5q-88 0 -168 26.5t-141.5 78.5t-97.5 129t-36 177z" />
<glyph unicode="&#xaa;" horiz-adv-x="858" d="M104 934q0 160 92.5 279.5t252.5 191.5l108 55q25 0 55.5 -6t64.5 -15t68.5 -20.5t63.5 -23.5l-127 -652l143 93l21 -29l-223 -172l-113 53l27 143l16 39l-256 -233q-82 29 -137.5 96.5t-55.5 200.5zM268 997q0 -76 28 -135t71 -90l184 146l78 403q-33 25 -82 40t-90 15 q-80 -53 -134.5 -151.5t-54.5 -227.5z" />
<glyph unicode="&#xab;" horiz-adv-x="964" d="M72 481l452 451h64l-344 -451l186 -450h-68zM440 481l453 451h61l-342 -451l185 -450h-66z" />
<glyph unicode="&#xac;" d="M106 655v93h1055v-379h-92v286h-963z" />
<glyph unicode="&#xad;" horiz-adv-x="743" d="M72 522l16 92h604l-16 -92h-604z" />
<glyph unicode="&#xae;" horiz-adv-x="1202" d="M152 899q0 111 36.5 197t104 148.5t162 102t209.5 56.5q104 0 197 -36t164 -101.5t113 -162.5t42 -220q0 -111 -37 -197t-104.5 -148.5t-161.5 -102.5t-209 -56q-102 0 -196.5 36t-165 102.5t-112.5 162.5t-42 219zM238 899q0 -123 42 -213t106.5 -148.5t138 -87 t139.5 -28.5q86 0 163.5 30.5t137 89t94.5 144.5t35 197q0 125 -42 216t-106.5 149.5t-139.5 86t-138 27.5q-86 0 -164 -31t-137.5 -90t-94 -145t-34.5 -197zM399 645l64 6v488l-64 6l2 26h306q74 0 128 -32.5t54 -102.5q0 -68 -59.5 -103.5t-151.5 -47.5l113 -33l133 -199 l39 -8v-27h-164l-160 252l-4 4h-49v-223l61 -6l-2 -27h-244zM586 907h47q57 0 90 32t33 91q0 55 -30 85t-77 30l-63 -4v-234z" />
<glyph unicode="&#xaf;" horiz-adv-x="1013" d="M211 1251l16 95h578l-14 -95h-580z" />
<glyph unicode="&#xb0;" horiz-adv-x="782" d="M219 1227q0 66 21.5 115t62.5 85.5t99.5 64.5t134.5 50q63 0 120.5 -24.5t100.5 -67.5t67.5 -100.5t24.5 -122.5q0 -129 -72.5 -204t-240.5 -112q-66 0 -123.5 25t-100.5 68t-68.5 100t-25.5 123zM313 1227q0 -47 17.5 -88t48.5 -72t72 -49.5t86 -18.5q47 0 87 18.5 t69.5 49.5t46 72t16.5 88q0 45 -17.5 87t-47 72.5t-69.5 49t-85 18.5q-49 0 -90 -18.5t-71 -49t-46.5 -72.5t-16.5 -87z" />
<glyph unicode="&#xb1;" d="M98 0v92h1076v-92h-1076zM98 758v92h482v489h90v-489h483v-92h-483v-473h-90v473h-482z" />
<glyph unicode="&#xb2;" horiz-adv-x="698" d="M109 856l256 211q117 94 183 181t66 186q0 59 -25.5 98t-74.5 45l-61 -18l-74 -154h-100l12 139l276 84q115 0 167 -50t52 -126q0 -59 -25.5 -110.5t-68.5 -97.5t-99 -89t-120 -82l-225 -147l102 22h383v-35l-55 -92h-555z" />
<glyph unicode="&#xb3;" horiz-adv-x="610" d="M100 817l25 127h278q88 61 89 150q0 49 -42 84.5t-139 38.5l-8 26l74 37q160 72 160 199q0 39 -24 64.5t-58 29.5l-64 -17l-69 -147h-105l14 137l281 82q102 0 145 -39t43 -92q0 -80 -71.5 -131t-169.5 -74q109 -8 158 -51t49 -102q0 -57 -29 -98.5t-72 -70t-95 -50 t-99 -37.5l-166 -66h-105z" />
<glyph unicode="&#xb4;" horiz-adv-x="1019" d="M322 1118l180 357h203l-332 -357h-51z" />
<glyph unicode="&#xb5;" d="M141 -471l252 1432h182l-126 -719q-10 -68 10 -96.5t57 -28.5q43 0 91 27.5t102 62.5l77 55l123 699h185l-154 -873l186 121l23 -33l-287 -209l-110 66l24 143l15 31l-338 -238q-111 0 -154 66l-14 -96l63 -410h-207z" />
<glyph unicode="&#xb6;" horiz-adv-x="1050" d="M102 1102q0 53 25 99t68 86t99 76t118 71h546v-62l-104 -16v-1682h-84v1684h-260v-1684h-86v1153q-63 0 -121.5 18.5t-102.5 53.5t-71 86t-27 117z" />
<glyph unicode="&#xb7;" horiz-adv-x="882" d="M389 721l10 115l31 96l152 10l55 -10l-8 -113l-31 -98l-152 -10z" />
<glyph unicode="&#xb8;" horiz-adv-x="1122" d="M330 -496l59 82h168q74 45 74 125q0 33 -12.5 55.5t-33 36t-46 20.5t-52.5 7l156 190l37 -18l-80 -96q68 -6 114 -43t46 -99q0 -47 -20.5 -80.5t-52.5 -59t-69.5 -43t-70.5 -30.5l-131 -47h-86z" />
<glyph unicode="&#xb9;" horiz-adv-x="616" d="M141 819l4 37l183 14l121 627l10 16l-31 -14l-166 -43l-10 35l323 125h58l-146 -746l177 -14l-9 -37l-254 2z" />
<glyph unicode="&#xba;" horiz-adv-x="845" d="M123 958q0 150 82 273t239 184l111 45q55 0 106.5 -20.5t90.5 -60.5t61.5 -99t22.5 -139q0 -147 -83 -273.5t-239 -187.5l-111 -43q-55 0 -106 20.5t-90 61.5t-61.5 100.5t-22.5 138.5zM301 993q0 -143 51 -208.5t119 -79.5q51 20 87 66t57.5 102.5t30.5 119t9 115.5 q0 72 -13 122t-36.5 84t-55.5 52.5t-67 24.5q-53 -20 -88 -64.5t-55.5 -101t-29.5 -117.5t-9 -115z" />
<glyph unicode="&#xbb;" horiz-adv-x="1011" d="M63 31l343 450l-185 451h64l295 -451l-451 -450h-66zM432 31l342 450l-184 451h61l295 -451l-450 -450h-64z" />
<glyph unicode="&#xbc;" horiz-adv-x="1634" d="M123 645l4 39l182 12l121 629l10 14l-30 -14l-166 -43l-11 35l322 123h59l-145 -744l176 -12l-8 -39l-254 2zM250 -102l1067 1556h90l-1063 -1556h-94zM850 293l461 504h180l-6 -41l-570 -457l39 14h246l27 131l139 88h29l-45 -219h155l-12 -69h-156l-47 -244h-149 l47 244h-316z" />
<glyph unicode="&#xbd;" horiz-adv-x="1644" d="M123 645l4 39l182 12l121 629l10 14l-30 -14l-166 -43l-11 35l322 123h59l-145 -744l176 -12l-8 -39l-254 2zM250 -102l1067 1556h90l-1061 -1556h-96zM848 35l254 215q117 92 184.5 180t67.5 186q0 59 -27 97.5t-74 44.5l-61 -19l-74 -153h-100l12 139l277 84 q115 0 167 -50t52 -124q0 -59 -25.5 -111.5t-68.5 -98.5t-99.5 -89t-120.5 -82l-227 -148l105 23h383v-37l-56 -92h-555z" />
<glyph unicode="&#xbe;" horiz-adv-x="1574" d="M123 641l24 131h281q86 59 86 148q0 49 -42 85.5t-136 38.5l-8 27l71 35q158 72 158 197q0 41 -22.5 66.5t-57.5 29.5l-61 -17l-72 -147h-104l14 137l278 82q102 0 146.5 -39t42.5 -92q0 -41 -19.5 -72.5t-52.5 -57.5t-76 -44.5t-92 -30.5q111 -8 159 -52t48 -103 q0 -55 -28.5 -96.5t-72.5 -70t-96.5 -50t-99.5 -37.5l-164 -68h-104zM197 -102l1065 1556h90l-1061 -1556h-94zM791 293l460 504h181l-7 -41l-571 -457l39 14h246l26 131l144 88h24l-41 -219h154l-14 -69h-156l-45 -244h-150l45 244h-315z" />
<glyph unicode="&#xbf;" horiz-adv-x="825" d="M-59 -190q0 133 80.5 222t222.5 144l147 64l94 278h74l-41 -254l-149 -90q-104 -63 -160.5 -152.5t-56.5 -193.5q0 -45 9 -89t29.5 -80t53 -61.5t80.5 -33.5l49 18l86 209h119l-15 -192l-289 -99q-80 0 -141 24.5t-104 66.5t-65.5 98.5t-22.5 120.5zM457 754l10 104 l29 94l143 13l53 -13l-8 -108l-29 -90l-143 -11z" />
<glyph unicode="&#xc0;" horiz-adv-x="1374" d="M-49 -2l2 49l160 16l759 1352l158 49l135 -1401l154 -16l-10 -49l-273 4l-270 -4l2 49l174 19l-37 428h-467l-233 -428l174 -19l-12 -49l-211 4zM471 557h428l-51 617v75zM739 1845h205l62 -284h-58z" />
<glyph unicode="&#xc1;" horiz-adv-x="1374" d="M-49 -2l2 49l160 16l759 1352l158 49l135 -1401l154 -16l-10 -49l-273 4l-270 -4l2 49l174 19l-37 428h-467l-233 -428l174 -19l-12 -49l-211 4zM471 557h428l-51 617v75zM930 1561l114 284h216l-273 -284h-57z" />
<glyph unicode="&#xc2;" horiz-adv-x="1374" d="M-49 -2l2 49l160 16l759 1352l158 49l135 -1401l154 -16l-10 -49l-273 4l-270 -4l2 49l174 19l-37 428h-467l-233 -428l174 -19l-12 -49l-211 4zM471 557h428l-51 617v75zM705 1561l270 294h110l162 -294h-65l-172 172h-4l-240 -172h-61z" />
<glyph unicode="&#xc3;" horiz-adv-x="1374" d="M-49 -2l2 49l160 16l759 1352l158 49l135 -1401l154 -16l-10 -49l-273 4l-270 -4l2 49l174 19l-37 428h-467l-233 -428l174 -19l-12 -49l-211 4zM471 557h428l-51 617v75zM674 1581l94 209l127 43l315 -147l103 143h30l-98 -215l-125 -37l-315 147l-100 -143h-31z" />
<glyph unicode="&#xc4;" horiz-adv-x="1374" d="M-49 -2l2 49l160 16l759 1352l158 49l135 -1401l154 -16l-10 -49l-273 4l-270 -4l2 49l174 19l-37 428h-467l-233 -428l174 -19l-12 -49l-211 4zM471 557h428l-51 617v75zM709 1597l6 101l37 80l63 8l98 -8l-2 -92l-34 -89l-66 -10zM1108 1597l4 101l37 80l63 8l97 -8 l-2 -92l-33 -89l-64 -10z" />
<glyph unicode="&#xc5;" horiz-adv-x="1374" d="M-49 -2l2 49l160 16l759 1352l158 49l135 -1401l154 -16l-10 -49l-273 4l-270 -4l2 49l174 19l-37 428h-467l-233 -428l174 -19l-12 -49l-211 4zM471 557h428l-51 617v75zM768 1716q0 49 17.5 81t47 53.5t68.5 37t80 27.5q43 0 82 -9.5t67.5 -33t46 -61.5t17.5 -93 q0 -49 -16.5 -79.5t-45 -51t-67.5 -35t-82 -28.5q-39 0 -78 10t-69.5 32.5t-49 59.5t-18.5 90zM848 1716q0 -59 38 -95t97 -36q57 0 95 36t38 95t-38 98t-95 39q-59 0 -97 -39t-38 -98z" />
<glyph unicode="&#xc6;" horiz-adv-x="1808" d="M-49 -2l4 49l160 16l864 1373l143 -4l731 4l-30 -363h-45l-88 295l-469 4l-99 -647l242 4l133 244h35l-59 -277l-31 -282h-35l-55 243l-240 5l-92 -599l491 3l177 327h51l-78 -395l-754 4l-266 -4v49l172 19l90 593h-325l-367 -593l172 -19l-14 -49l-215 4zM614 725h299 l101 641z" />
<glyph unicode="&#xc7;" horiz-adv-x="1253" d="M104 586q0 119 31 242.5t100.5 235.5t181 203t271.5 146l182 60q141 0 240.5 -42t159.5 -85l-17 -332h-63l-70 241q-51 43 -137 78t-221 51q-207 -84 -314.5 -276.5t-107.5 -450.5q0 -139 31.5 -246.5t89 -183t134.5 -120t169 -58.5q70 27 132 60.5t103 66.5l150 273h68 l-74 -345l-463 -141l-49 -57q68 -6 114 -43t46 -99q0 -47 -20.5 -80.5t-52.5 -59t-70 -43t-70 -30.5l-132 -47h-86l60 82h168q74 45 74 125q0 33 -12.5 55.5t-33 36t-46 20.5t-52.5 7l111 135q-119 8 -216.5 56.5t-166 129t-105.5 191.5t-37 244z" />
<glyph unicode="&#xc8;" horiz-adv-x="1183" d="M-16 -2v49l172 19l202 1304l-163 19l10 47l274 -4l750 4l-29 -363h-45l-88 295l-498 4l-90 -592l269 4l129 230h41l-58 -262l-29 -263h-40l-56 230l-266 4l-102 -660l530 3l172 317h51l-76 -385l-790 4zM588 1845h205l61 -284h-57z" />
<glyph unicode="&#xc9;" horiz-adv-x="1183" d="M-16 -2v49l172 19l202 1304l-163 19l10 47l274 -4l750 4l-29 -363h-45l-88 295l-498 4l-90 -592l269 4l129 230h41l-58 -262l-29 -263h-40l-56 230l-266 4l-102 -660l530 3l172 317h51l-76 -385l-790 4zM743 1561l115 284h217l-272 -284h-60z" />
<glyph unicode="&#xca;" horiz-adv-x="1183" d="M-16 -2v49l172 19l202 1304l-163 19l10 47l274 -4l750 4l-29 -363h-45l-88 295l-498 4l-90 -592l269 4l129 230h41l-58 -262l-29 -263h-40l-56 230l-266 4l-102 -660l530 3l172 317h51l-76 -385l-790 4zM512 1561l272 294h111l160 -294h-64l-174 172h-4l-238 -172h-63z " />
<glyph unicode="&#xcb;" horiz-adv-x="1183" d="M-16 -2v49l172 19l202 1304l-163 19l10 47l274 -4l750 4l-29 -363h-45l-88 295l-498 4l-90 -592l269 4l129 230h41l-58 -262l-29 -263h-40l-56 230l-266 4l-102 -660l530 3l172 317h51l-76 -385l-790 4zM510 1597l6 101l37 80l61 8l99 -8v-92l-35 -89l-66 -10zM907 1597 l4 101l37 80l64 8l96 -8l2 -92l-35 -89l-65 -10z" />
<glyph unicode="&#xcc;" horiz-adv-x="634" d="M-16 -2v49l172 19l202 1304l-163 19l8 47l266 -4l264 4l-2 -47l-162 -19l-200 -1304l159 -19l-10 -49l-266 4zM283 1845h206l60 -284h-57z" />
<glyph unicode="&#xcd;" horiz-adv-x="634" d="M-16 -2v49l172 19l202 1304l-163 19l8 47l266 -4l264 4l-2 -47l-162 -19l-200 -1304l159 -19l-10 -49l-266 4zM455 1561l112 284h219l-272 -284h-59z" />
<glyph unicode="&#xce;" horiz-adv-x="634" d="M-16 -2v49l172 19l202 1304l-163 19l8 47l266 -4l264 4l-2 -47l-162 -19l-200 -1304l159 -19l-10 -49l-266 4zM217 1561l272 294h111l160 -294h-64l-172 172h-4l-241 -172h-62z" />
<glyph unicode="&#xcf;" horiz-adv-x="634" d="M-16 -2v49l172 19l202 1304l-163 19l8 47l266 -4l264 4l-2 -47l-162 -19l-200 -1304l159 -19l-10 -49l-266 4zM229 1604l7 94l34 80l64 8l92 -8v-92l-37 -82l-57 -11zM598 1604l6 94l37 80l64 8l92 -8l-2 -92l-35 -82l-58 -11z" />
<glyph unicode="&#xd0;" horiz-adv-x="1357" d="M-16 47l170 19l100 651h-170l10 61h170l92 596l-166 15l11 47l272 -4l311 4q125 2 228.5 -41t177.5 -121t115 -186.5t41 -239.5q0 -121 -34 -242t-103.5 -226.5t-177 -189.5t-255.5 -133l-180 -59l-328 4l-282 -4zM369 86h319q90 47 167 122t133 172t89 212t33 242 q0 131 -29.5 230t-82 167.5t-123 104.5t-152.5 38h-154l-94 -596h254l-10 -61h-252z" />
<glyph unicode="&#xd1;" horiz-adv-x="1400" d="M-16 -2v49l170 19l206 1296l-159 27l10 47l192 -4l168 4l504 -1084l17 -78l165 1096l-165 19l10 47l203 -4l208 4v-47l-172 -19l-215 -1370h-127l-555 1229l-10 82l-194 -1245l163 -19l-10 -49l-200 4zM573 1581l97 209l125 43l315 -147l104 143h31l-98 -215l-125 -37 l-317 147l-101 -143h-31z" />
<glyph unicode="&#xd2;" horiz-adv-x="1398" d="M104 580q0 123 31 250.5t99.5 242.5t177 206t264.5 140l160 51q123 0 223 -44t173 -123.5t111.5 -193.5t38.5 -253q0 -123 -30.5 -250t-99 -240.5t-178 -205.5t-265.5 -144l-160 -53q-123 0 -223 44t-172 125t-111 194.5t-39 253.5zM338 612q0 -135 29.5 -238.5t82 -174 t123 -110.5t150.5 -48q98 37 177 112.5t133 179t84 229.5t30 261t-30 238.5t-81 174.5t-121.5 110.5t-150.5 48.5q-96 -33 -175 -109t-134.5 -180.5t-86 -231.5t-30.5 -262zM649 1845h205l59 -284h-55z" />
<glyph unicode="&#xd3;" horiz-adv-x="1398" d="M104 580q0 123 31 250.5t99.5 242.5t177 206t264.5 140l160 51q123 0 223 -44t173 -123.5t111.5 -193.5t38.5 -253q0 -123 -30.5 -250t-99 -240.5t-178 -205.5t-265.5 -144l-160 -53q-123 0 -223 44t-172 125t-111 194.5t-39 253.5zM338 612q0 -135 29.5 -238.5t82 -174 t123 -110.5t150.5 -48q98 37 177 112.5t133 179t84 229.5t30 261t-30 238.5t-81 174.5t-121.5 110.5t-150.5 48.5q-96 -33 -175 -109t-134.5 -180.5t-86 -231.5t-30.5 -262zM801 1561l112 284h217l-272 -284h-57z" />
<glyph unicode="&#xd4;" horiz-adv-x="1398" d="M104 580q0 123 31 250.5t99.5 242.5t177 206t264.5 140l160 51q123 0 223 -44t173 -123.5t111.5 -193.5t38.5 -253q0 -123 -30.5 -250t-99 -240.5t-178 -205.5t-265.5 -144l-160 -53q-123 0 -223 44t-172 125t-111 194.5t-39 253.5zM338 612q0 -135 29.5 -238.5t82 -174 t123 -110.5t150.5 -48q98 37 177 112.5t133 179t84 229.5t30 261t-30 238.5t-81 174.5t-121.5 110.5t-150.5 48.5q-96 -33 -175 -109t-134.5 -180.5t-86 -231.5t-30.5 -262zM608 1561l273 294h110l160 -294h-61l-177 172h-4l-239 -172h-62z" />
<glyph unicode="&#xd5;" horiz-adv-x="1398" d="M104 580q0 123 31 250.5t99.5 242.5t177 206t264.5 140l160 51q123 0 223 -44t173 -123.5t111.5 -193.5t38.5 -253q0 -123 -30.5 -250t-99 -240.5t-178 -205.5t-265.5 -144l-160 -53q-123 0 -223 44t-172 125t-111 194.5t-39 253.5zM338 612q0 -135 29.5 -238.5t82 -174 t123 -110.5t150.5 -48q98 37 177 112.5t133 179t84 229.5t30 261t-30 238.5t-81 174.5t-121.5 110.5t-150.5 48.5q-96 -33 -175 -109t-134.5 -180.5t-86 -231.5t-30.5 -262zM575 1581l97 209l125 43l315 -147l107 143h28l-98 -215l-125 -37l-315 147l-103 -143h-31z" />
<glyph unicode="&#xd6;" horiz-adv-x="1398" d="M104 580q0 123 31 250.5t99.5 242.5t177 206t264.5 140l160 51q123 0 223 -44t173 -123.5t111.5 -193.5t38.5 -253q0 -123 -30.5 -250t-99 -240.5t-178 -205.5t-265.5 -144l-160 -53q-123 0 -223 44t-172 125t-111 194.5t-39 253.5zM338 612q0 -135 29.5 -238.5t82 -174 t123 -110.5t150.5 -48q98 37 177 112.5t133 179t84 229.5t30 261t-30 238.5t-81 174.5t-121.5 110.5t-150.5 48.5q-96 -33 -175 -109t-134.5 -180.5t-86 -231.5t-30.5 -262zM608 1597l6 101l33 80l64 8l98 -8v-92l-35 -89l-65 -10zM1004 1597l6 101l37 80l61 8l98 -8v-92 l-35 -89l-63 -10z" />
<glyph unicode="&#xd7;" d="M215 819l66 66l354 -359l352 355l66 -64l-355 -354l355 -352l-64 -64l-354 352l-354 -354l-64 66l354 352z" />
<glyph unicode="&#xd8;" horiz-adv-x="1398" d="M33 -31l184 211q-53 78 -83 178.5t-30 221.5q0 123 31 250.5t99.5 242.5t177 206t264.5 140l160 51q115 0 210 -37.5t166 -109.5l121 137h70l-156 -178q66 -80 100.5 -187.5t34.5 -238.5q0 -123 -30.5 -250t-99 -240.5t-178 -205.5t-265.5 -144l-160 -53q-125 0 -225 45 t-172 127l-146 -166h-73zM338 612q0 -143 35 -254l704 809q-53 104 -134 160.5t-179 67.5q-96 -33 -175 -109t-134.5 -180.5t-86 -231.5t-30.5 -262zM393 299q51 -119 137 -183.5t193 -74.5q98 37 177 112.5t133 179t84 229.5t30 261q0 166 -47 289z" />
<glyph unicode="&#xd9;" horiz-adv-x="1308" d="M156 1389l10 47l264 -4l268 4l2 -47l-163 -19l-146 -905q-12 -84 0 -156.5t51 -127t104.5 -86.5t162.5 -32q63 25 115.5 56t92 79t66.5 116.5t43 166.5l143 889l-165 19l10 47l205 -4l219 4l2 -47l-170 -19l-142 -885q-14 -86 -37.5 -159.5t-67.5 -132t-111.5 -103.5 t-170.5 -74l-163 -53q-127 0 -211 36t-132.5 102.5t-60.5 159.5t6 210l137 899zM647 1845h205l59 -284h-57z" />
<glyph unicode="&#xda;" horiz-adv-x="1308" d="M156 1389l10 47l264 -4l268 4l2 -47l-163 -19l-146 -905q-12 -84 0 -156.5t51 -127t104.5 -86.5t162.5 -32q63 25 115.5 56t92 79t66.5 116.5t43 166.5l143 889l-165 19l10 47l205 -4l219 4l2 -47l-170 -19l-142 -885q-14 -86 -37.5 -159.5t-67.5 -132t-111.5 -103.5 t-170.5 -74l-163 -53q-127 0 -211 36t-132.5 102.5t-60.5 159.5t6 210l137 899zM807 1561l111 284h219l-273 -284h-57z" />
<glyph unicode="&#xdb;" horiz-adv-x="1308" d="M156 1389l10 47l264 -4l268 4l2 -47l-163 -19l-146 -905q-12 -84 0 -156.5t51 -127t104.5 -86.5t162.5 -32q63 25 115.5 56t92 79t66.5 116.5t43 166.5l143 889l-165 19l10 47l205 -4l219 4l2 -47l-170 -19l-142 -885q-14 -86 -37.5 -159.5t-67.5 -132t-111.5 -103.5 t-170.5 -74l-163 -53q-127 0 -211 36t-132.5 102.5t-60.5 159.5t6 210l137 899zM602 1561l275 294h110l160 -294h-64l-174 172h-4l-239 -172h-64z" />
<glyph unicode="&#xdc;" horiz-adv-x="1308" d="M156 1389l10 47l264 -4l268 4l2 -47l-163 -19l-146 -905q-12 -84 0 -156.5t51 -127t104.5 -86.5t162.5 -32q63 25 115.5 56t92 79t66.5 116.5t43 166.5l143 889l-165 19l10 47l205 -4l219 4l2 -47l-170 -19l-142 -885q-14 -86 -37.5 -159.5t-67.5 -132t-111.5 -103.5 t-170.5 -74l-163 -53q-127 0 -211 36t-132.5 102.5t-60.5 159.5t6 210l137 899zM592 1597l6 101l35 80l63 8l99 -8v-92l-35 -89l-66 -10zM989 1597l4 101l37 80l64 8l98 -8v-92l-35 -89l-65 -10z" />
<glyph unicode="&#xdd;" horiz-adv-x="1259" d="M154 1389l8 47l235 -4l281 4v-47l-170 -19l254 -668v-40l436 708l-174 19l8 47l215 -4l150 4v-47l-109 -17l-491 -782l-80 -524l201 -19l-13 -49l-305 4l-307 -4v49l211 19l80 522l-314 784zM807 1561l115 284h215l-271 -284h-59z" />
<glyph unicode="&#xde;" horiz-adv-x="1124" d="M-16 -2v49l172 19l200 1304l-163 19l12 47l264 -4l262 4l2 -47l-166 -19l-35 -235l242 2q94 2 169 -20.5t125 -63.5t76.5 -98.5t26.5 -127.5q0 -156 -105 -262t-325 -184l-135 -49h-198l-41 -266l219 -19l-13 -49l-325 4zM420 416h272q45 25 89 59.5t79 82.5t55.5 106.5 t20.5 130.5q0 129 -62.5 202.5t-191.5 77.5h-160z" />
<glyph unicode="&#xdf;" horiz-adv-x="1067" d="M-238 -481l37 174h211q27 39 44.5 86t27.5 98l172 1006h-168l8 28l39 35h133l8 49q23 119 67 194t112 116l258 159q59 0 115.5 -10t99.5 -34.5t68.5 -69.5t25.5 -117q0 -53 -19.5 -97t-50 -80t-69.5 -64.5t-78 -51.5l-115 -78q-8 -10 -13 -31.5t-5 -37.5q0 -45 18.5 -77 t52.5 -65q2 -4 17.5 -18.5t34 -31.5t35 -32.5t20.5 -19.5q68 -61 115 -120.5t47 -143.5q0 -92 -52.5 -152.5t-162.5 -97.5l-199 -70q-23 8 -52.5 22.5t-59 31t-55.5 33t-40 26.5l100 141q45 -35 111 -78t133 -78q57 16 83 53.5t26 84.5q0 72 -37 120t-98 103 q-4 2 -19.5 16.5t-32 29.5t-32 28.5t-17.5 17.5q-41 37 -61.5 81t-22.5 99q-2 35 5.5 60.5t17.5 46.5l133 119q59 51 104 115.5t45 158.5q0 49 -15 83t-37.5 55.5t-50.5 30.5t-52 9l-17 -10q-86 -51 -123.5 -113.5t-54.5 -144.5l-203 -1149q-12 -82 -46.5 -148.5 t-104.5 -113.5l-260 -176h-101z" />
<glyph unicode="&#xe0;" horiz-adv-x="983" d="M76 336q0 199 106.5 347t290.5 241l141 67q27 0 64 -7t77 -18.5t78.5 -25.5t73.5 -31l-145 -819l184 123l23 -33l-277 -213l-123 70l31 174l16 45l-305 -287q-49 18 -92 47t-74.5 72t-50 104.5t-18.5 143.5zM270 416q0 -102 36 -177t100 -116l210 182l91 516 q-20 14 -48 25.5t-58 21t-58.5 14.5t-50.5 5q-100 -68 -161 -190.5t-61 -280.5zM510 1475h201l41 -357h-50z" />
<glyph unicode="&#xe1;" horiz-adv-x="983" d="M76 336q0 199 106.5 347t290.5 241l141 67q27 0 64 -7t77 -18.5t78.5 -25.5t73.5 -31l-145 -819l184 123l23 -33l-277 -213l-123 70l31 174l16 45l-305 -287q-49 18 -92 47t-74.5 72t-50 104.5t-18.5 143.5zM270 416q0 -102 36 -177t100 -116l210 182l91 516 q-20 14 -48 25.5t-58 21t-58.5 14.5t-50.5 5q-100 -68 -161 -190.5t-61 -280.5zM586 1118l180 357h203l-332 -357h-51z" />
<glyph unicode="&#xe2;" horiz-adv-x="983" d="M76 336q0 199 106.5 347t290.5 241l141 67q27 0 64 -7t77 -18.5t78.5 -25.5t73.5 -31l-145 -819l184 123l23 -33l-277 -213l-123 70l31 174l16 45l-305 -287q-49 18 -92 47t-74.5 72t-50 104.5t-18.5 143.5zM270 416q0 -102 36 -177t100 -116l210 182l91 516 q-20 14 -48 25.5t-58 21t-58.5 14.5t-50.5 5q-100 -68 -161 -190.5t-61 -280.5zM424 1118l276 365h93l145 -365h-51l-168 211h-2l-240 -211h-53z" />
<glyph unicode="&#xe3;" horiz-adv-x="983" d="M76 336q0 199 106.5 347t290.5 241l141 67q27 0 64 -7t77 -18.5t78.5 -25.5t73.5 -31l-145 -819l184 123l23 -33l-277 -213l-123 70l31 174l16 45l-305 -287q-49 18 -92 47t-74.5 72t-50 104.5t-18.5 143.5zM270 416q0 -102 36 -177t100 -116l210 182l91 516 q-20 14 -48 25.5t-58 21t-58.5 14.5t-50.5 5q-100 -68 -161 -190.5t-61 -280.5zM379 1192l94 211l129 43l313 -148l103 144h31l-99 -217l-125 -37l-315 149l-100 -145h-31z" />
<glyph unicode="&#xe4;" horiz-adv-x="983" d="M76 336q0 199 106.5 347t290.5 241l141 67q27 0 64 -7t77 -18.5t78.5 -25.5t73.5 -31l-145 -819l184 123l23 -33l-277 -213l-123 70l31 174l16 45l-305 -287q-49 18 -92 47t-74.5 72t-50 104.5t-18.5 143.5zM270 416q0 -102 36 -177t100 -116l210 182l91 516 q-20 14 -48 25.5t-58 21t-58.5 14.5t-50.5 5q-100 -68 -161 -190.5t-61 -280.5zM451 1204l6 96l35 76l61 13l94 -13v-90l-37 -82l-59 -12zM793 1204l6 96l37 76l63 13l92 -13l-2 -90l-35 -82l-59 -12z" />
<glyph unicode="&#xe5;" horiz-adv-x="983" d="M76 336q0 199 106.5 347t290.5 241l141 67q27 0 64 -7t77 -18.5t78.5 -25.5t73.5 -31l-145 -819l184 123l23 -33l-277 -213l-123 70l31 174l16 45l-305 -287q-49 18 -92 47t-74.5 72t-50 104.5t-18.5 143.5zM270 416q0 -102 36 -177t100 -116l210 182l91 516 q-20 14 -48 25.5t-58 21t-58.5 14.5t-50.5 5q-100 -68 -161 -190.5t-61 -280.5zM537 1300q0 49 17 81t47 53.5t68 37t79 27.5q43 0 82.5 -9t68.5 -32.5t46.5 -61.5t17.5 -93q0 -49 -16.5 -81t-46.5 -51.5t-67.5 -34t-80.5 -28.5q-41 0 -79 9t-69 31.5t-49 59.5t-18 92z M616 1303q0 -59 37 -96.5t97 -37.5q57 0 96 37t39 97q0 59 -39 97t-96 38q-59 0 -96.5 -38t-37.5 -97z" />
<glyph unicode="&#xe6;" horiz-adv-x="1353" d="M70 336q0 199 107.5 347t291.5 241l141 67q27 0 64 -7t77 -19.5t78.5 -28.5t73.5 -35q8 6 17.5 10t19.5 9l176 71q86 -16 143.5 -65t57.5 -152q0 -35 -7 -75t-30 -91l-522 -159v-27q2 -76 22.5 -130t52 -92t71.5 -59.5t81 -29.5q25 12 58.5 29.5t67.5 36t65.5 37.5 t56.5 36l24 -35q-45 -35 -113.5 -83t-137.5 -91l-115 -72q-109 6 -194 75t-117 185l-269 -260q-51 18 -95 47t-77 72t-51 104.5t-18 143.5zM266 416q0 -102 37 -177t103 -116l163 145q-4 10 -4 20.5v18.5q-10 133 36 262t149 228q-59 39 -134 64.5t-131 25.5 q-98 -68 -158.5 -190.5t-60.5 -280.5zM762 494l330 122q14 35 18 67t4 62q0 72 -31.5 109t-78.5 47q-86 -41 -135.5 -121t-73.5 -170q-16 -25 -24.5 -53.5t-8.5 -62.5z" />
<glyph unicode="&#xe7;" horiz-adv-x="843" d="M78 360q0 190 106.5 333t311.5 233l141 65q41 -4 100.5 -26.5t102.5 -49.5l-101 -157q-55 41 -117.5 71.5t-119.5 53.5q-119 -68 -172.5 -180.5t-53.5 -245.5q0 -78 18.5 -137.5t49.5 -101.5t71 -68.5t83 -38.5q25 10 58.5 27.5t68 38t66.5 40t54 33.5l27 -33 q-51 -41 -116.5 -84t-135.5 -90l-106 -74l-56 -63q68 -6 114 -43t46 -99q0 -47 -20.5 -80.5t-52 -59t-69.5 -43t-71 -30.5l-131 -47h-86l62 82h165q35 23 55.5 53.5t20.5 71.5q0 33 -12 55.5t-32.5 36t-47.5 20.5t-53 7l119 143q-55 8 -107.5 38t-92.5 79t-63.5 117.5 t-23.5 152.5z" />
<glyph unicode="&#xe8;" horiz-adv-x="872" d="M78 354q0 92 26.5 180.5t77.5 164t127 136t176 99.5l148 57q88 -16 144.5 -65t56.5 -152q0 -35 -7.5 -75t-29.5 -91l-523 -162q-2 -6 -2 -13v-13q2 -72 23.5 -126t53.5 -92t72 -60.5t83 -30.5q25 12 57.5 29.5t66.5 36t65.5 37.5t56.5 36l26 -35q-47 -35 -115.5 -83 t-140.5 -91l-110 -72q-68 2 -128.5 31t-105.5 79t-71.5 119.5t-26.5 155.5zM276 502l3 -10l329 129q14 35 19.5 64.5t5.5 59.5q0 72 -33 109t-80 47q-109 -53 -171 -158.5t-73 -240.5zM412 1475h200l41 -357h-49z" />
<glyph unicode="&#xe9;" horiz-adv-x="872" d="M78 354q0 92 26.5 180.5t77.5 164t127 136t176 99.5l148 57q88 -16 144.5 -65t56.5 -152q0 -35 -7.5 -75t-29.5 -91l-523 -162q-2 -6 -2 -13v-13q2 -72 23.5 -126t53.5 -92t72 -60.5t83 -30.5q25 12 57.5 29.5t66.5 36t65.5 37.5t56.5 36l26 -35q-47 -35 -115.5 -83 t-140.5 -91l-110 -72q-68 2 -128.5 31t-105.5 79t-71.5 119.5t-26.5 155.5zM276 502l3 -10l329 129q14 35 19.5 64.5t5.5 59.5q0 72 -33 109t-80 47q-109 -53 -171 -158.5t-73 -240.5zM524 1118l181 357h202l-332 -357h-51z" />
<glyph unicode="&#xea;" horiz-adv-x="872" d="M78 354q0 92 26.5 180.5t77.5 164t127 136t176 99.5l148 57q88 -16 144.5 -65t56.5 -152q0 -35 -7.5 -75t-29.5 -91l-523 -162q-2 -6 -2 -13v-13q2 -72 23.5 -126t53.5 -92t72 -60.5t83 -30.5q25 12 57.5 29.5t66.5 36t65.5 37.5t56.5 36l26 -35q-47 -35 -115.5 -83 t-140.5 -91l-110 -72q-68 2 -128.5 31t-105.5 79t-71.5 119.5t-26.5 155.5zM276 502l3 -10l329 129q14 35 19.5 64.5t5.5 59.5q0 72 -33 109t-80 47q-109 -53 -171 -158.5t-73 -240.5zM358 1118l277 365h92l145 -365h-51l-168 211h-2l-241 -211h-52z" />
<glyph unicode="&#xeb;" horiz-adv-x="872" d="M78 354q0 92 26.5 180.5t77.5 164t127 136t176 99.5l148 57q88 -16 144.5 -65t56.5 -152q0 -35 -7.5 -75t-29.5 -91l-523 -162q-2 -6 -2 -13v-13q2 -72 23.5 -126t53.5 -92t72 -60.5t83 -30.5q25 12 57.5 29.5t66.5 36t65.5 37.5t56.5 36l26 -35q-47 -35 -115.5 -83 t-140.5 -91l-110 -72q-68 2 -128.5 31t-105.5 79t-71.5 119.5t-26.5 155.5zM276 502l3 -10l329 129q14 35 19.5 64.5t5.5 59.5q0 72 -33 109t-80 47q-109 -53 -171 -158.5t-73 -240.5zM367 1204l4 96l37 76l63 13l92 -13l-2 -90l-33 -82l-61 -12zM711 1204l4 96l37 76l63 13 l90 -13l-2 -90l-33 -82l-59 -12z" />
<glyph unicode="&#xec;" horiz-adv-x="571" d="M70 840l354 151l43 -41l-152 -862l183 125l22 -33l-276 -213l-123 68l147 833l-186 -65zM236 1475h200l41 -357h-47z" />
<glyph unicode="&#xed;" horiz-adv-x="571" d="M70 840l354 151l43 -41l-152 -862l183 125l22 -33l-276 -213l-123 68l147 833l-186 -65zM317 1118l183 357h205l-334 -357h-54z" />
<glyph unicode="&#xee;" horiz-adv-x="571" d="M70 840l354 151l43 -41l-152 -862l183 125l22 -33l-276 -213l-123 68l147 833l-186 -65zM139 1118l277 365h94l143 -365h-51l-168 211h-2l-242 -211h-51z" />
<glyph unicode="&#xef;" horiz-adv-x="571" d="M70 840l354 151l43 -41l-152 -862l183 125l22 -33l-276 -213l-123 68l147 833l-186 -65zM154 1204l6 96l33 76l65 13l92 -13l-2 -90l-33 -82l-59 -12zM498 1204l4 96l37 76l63 13l92 -13l-2 -90l-33 -82l-61 -12z" />
<glyph unicode="&#xf0;" horiz-adv-x="1005" d="M78 410q0 86 24.5 169t72.5 154.5t120 128t168 90.5l121 43q8 -2 35.5 -18t58.5 -34.5t55.5 -36t30.5 -19.5q-2 86 -44 184t-114 176l-250 -121v60l207 100q-96 92 -217 129l21 55q172 -53 282 -137l240 115v-59l-193 -93q82 -70 134.5 -150.5t83 -163.5t42 -163 t11.5 -149q0 -135 -31 -240.5t-85 -185.5t-130 -135.5t-166 -92.5l-127 -47q-82 8 -146.5 46t-109.5 96.5t-69.5 134.5t-24.5 164zM285 414q0 -88 17 -151.5t46 -106.5t65 -70t74 -39q74 27 126.5 82t85 134t48 177.5t15.5 210.5l-10 150q-57 33 -121 51t-101 20 q-63 -18 -109 -63t-77 -107.5t-45 -137.5t-14 -150z" />
<glyph unicode="&#xf1;" horiz-adv-x="1069" d="M70 840l354 151l43 -43l-27 -155l-16 -31l338 229q123 0 169 -64.5t30 -162.5l-121 -676l182 125l25 -33l-277 -213l-123 68l119 674q12 61 -4.5 98t-69.5 37q-41 0 -89 -23.5t-99 -58.5l-80 -55l-125 -707h-182l151 868l-184 -65zM381 1192l94 211l127 43l313 -148 l105 144h31l-99 -217l-125 -37l-317 149l-100 -145h-29z" />
<glyph unicode="&#xf2;" horiz-adv-x="966" d="M78 371q0 184 98 335.5t285 229.5l137 55q66 0 126 -25.5t105 -74.5t72 -123t27 -172q0 -92 -24.5 -179t-73 -161t-120 -133.5t-163.5 -95.5l-139 -58q-66 0 -126.5 27t-105.5 77t-71.5 124.5t-26.5 173.5zM276 412q0 -90 18.5 -153.5t48.5 -106.5t69 -68t82 -33 q68 25 112.5 82t72.5 128t39 147.5t11 144.5q0 90 -17.5 154.5t-47 106.5t-69.5 64.5t-85 32.5q-68 -27 -112 -82t-71.5 -125.5t-39 -147.5t-11.5 -144zM428 1475h199l43 -357h-49z" />
<glyph unicode="&#xf3;" horiz-adv-x="966" d="M78 371q0 184 98 335.5t285 229.5l137 55q66 0 126 -25.5t105 -74.5t72 -123t27 -172q0 -92 -24.5 -179t-73 -161t-120 -133.5t-163.5 -95.5l-139 -58q-66 0 -126.5 27t-105.5 77t-71.5 124.5t-26.5 173.5zM276 412q0 -90 18.5 -153.5t48.5 -106.5t69 -68t82 -33 q68 25 112.5 82t72.5 128t39 147.5t11 144.5q0 90 -17.5 154.5t-47 106.5t-69.5 64.5t-85 32.5q-68 -27 -112 -82t-71.5 -125.5t-39 -147.5t-11.5 -144zM555 1118l182 357h205l-334 -357h-53z" />
<glyph unicode="&#xf4;" horiz-adv-x="966" d="M78 371q0 184 98 335.5t285 229.5l137 55q66 0 126 -25.5t105 -74.5t72 -123t27 -172q0 -92 -24.5 -179t-73 -161t-120 -133.5t-163.5 -95.5l-139 -58q-66 0 -126.5 27t-105.5 77t-71.5 124.5t-26.5 173.5zM276 412q0 -90 18.5 -153.5t48.5 -106.5t69 -68t82 -33 q68 25 112.5 82t72.5 128t39 147.5t11 144.5q0 90 -17.5 154.5t-47 106.5t-69.5 64.5t-85 32.5q-68 -27 -112 -82t-71.5 -125.5t-39 -147.5t-11.5 -144zM375 1118l276 365h92l146 -365h-51l-168 211h-2l-242 -211h-51z" />
<glyph unicode="&#xf5;" horiz-adv-x="966" d="M78 371q0 184 98 335.5t285 229.5l137 55q66 0 126 -25.5t105 -74.5t72 -123t27 -172q0 -92 -24.5 -179t-73 -161t-120 -133.5t-163.5 -95.5l-139 -58q-66 0 -126.5 27t-105.5 77t-71.5 124.5t-26.5 173.5zM276 412q0 -90 18.5 -153.5t48.5 -106.5t69 -68t82 -33 q68 25 112.5 82t72.5 128t39 147.5t11 144.5q0 90 -17.5 154.5t-47 106.5t-69.5 64.5t-85 32.5q-68 -27 -112 -82t-71.5 -125.5t-39 -147.5t-11.5 -144zM352 1192l97 211l124 43l314 -148l106 144h31l-98 -217l-125 -37l-318 149l-100 -145h-31z" />
<glyph unicode="&#xf6;" horiz-adv-x="966" d="M78 371q0 184 98 335.5t285 229.5l137 55q66 0 126 -25.5t105 -74.5t72 -123t27 -172q0 -92 -24.5 -179t-73 -161t-120 -133.5t-163.5 -95.5l-139 -58q-66 0 -126.5 27t-105.5 77t-71.5 124.5t-26.5 173.5zM276 412q0 -90 18.5 -153.5t48.5 -106.5t69 -68t82 -33 q68 25 112.5 82t72.5 128t39 147.5t11 144.5q0 90 -17.5 154.5t-47 106.5t-69.5 64.5t-85 32.5q-68 -27 -112 -82t-71.5 -125.5t-39 -147.5t-11.5 -144zM420 1204l4 96l37 76l63 13l92 -13l-2 -90l-34 -82l-58 -12zM762 1204l6 96l35 76l65 13l93 -13l-3 -90l-34 -82 l-60 -12z" />
<glyph unicode="&#xf7;" d="M96 461v90h1075v-90h-1075zM528 131l11 92l143 8l55 -8l13 -106l-15 -94l-141 -11l-55 11zM528 883l11 90l143 10l55 -10l13 -107l-15 -92l-141 -10l-55 10z" />
<glyph unicode="&#xf8;" horiz-adv-x="966" d="M0 -14l135 143q-57 98 -57 242q0 184 98 335.5t285 229.5l137 55q70 0 131.5 -28.5t108.5 -81.5l100 106h63l-135 -145q29 -47 45.5 -108.5t16.5 -137.5q0 -92 -24.5 -179t-73 -161t-120 -133.5t-163.5 -95.5l-139 -58q-72 0 -135.5 30t-110.5 89l-96 -102h-66zM276 412 q0 -35 2.5 -65t8.5 -56l415 444q-29 82 -80 122t-112 54q-68 -27 -112 -82t-71.5 -125.5t-39 -147.5t-11.5 -144zM301 236q29 -86 81 -129.5t112 -55.5q68 25 112.5 82t72.5 128t39 147.5t11 144.5q0 74 -12 129z" />
<glyph unicode="&#xf9;" horiz-adv-x="1060" d="M59 846l355 145l43 -41l-125 -708q-12 -68 9 -96.5t56 -28.5q43 0 91.5 27.5t101.5 62.5l80 55l121 699h184l-152 -871l185 119l24 -33l-287 -209l-110 66l22 141l17 33l-338 -238q-61 0 -102 18.5t-65 49.5t-30 72t2 88l121 673l-186 -61zM461 1475h201l43 -357h-50z " />
<glyph unicode="&#xfa;" horiz-adv-x="1060" d="M59 846l355 145l43 -41l-125 -708q-12 -68 9 -96.5t56 -28.5q43 0 91.5 27.5t101.5 62.5l80 55l121 699h184l-152 -871l185 119l24 -33l-287 -209l-110 66l22 141l17 33l-338 -238q-61 0 -102 18.5t-65 49.5t-30 72t2 88l121 673l-186 -61zM553 1118l180 357h205 l-332 -357h-53z" />
<glyph unicode="&#xfb;" horiz-adv-x="1060" d="M59 846l355 145l43 -41l-125 -708q-12 -68 9 -96.5t56 -28.5q43 0 91.5 27.5t101.5 62.5l80 55l121 699h184l-152 -871l185 119l24 -33l-287 -209l-110 66l22 141l17 33l-338 -238q-61 0 -102 18.5t-65 49.5t-30 72t2 88l121 673l-186 -61zM403 1118l277 365h94l144 -365 h-52l-168 211h-2l-241 -211h-52z" />
<glyph unicode="&#xfc;" horiz-adv-x="1060" d="M59 846l355 145l43 -41l-125 -708q-12 -68 9 -96.5t56 -28.5q43 0 91.5 27.5t101.5 62.5l80 55l121 699h184l-152 -871l185 119l24 -33l-287 -209l-110 66l22 141l17 33l-338 -238q-61 0 -102 18.5t-65 49.5t-30 72t2 88l121 673l-186 -61zM432 1204l4 96l35 78l66 13 l92 -13l-2 -92l-33 -82l-59 -10zM776 1204l4 96l37 78l64 13l90 -13l2 -92l-35 -82l-59 -10z" />
<glyph unicode="&#xfd;" horiz-adv-x="937" d="M-18 -481l38 190h191l250 324l-148 -29l-123 862l-182 -65l-18 35l323 157l70 -35l104 -880l344 635l-149 174l172 104l74 -88l-31 -221l-350 -621l-328 -542h-237zM504 1118l180 357h205l-332 -357h-53z" />
<glyph unicode="&#xfe;" horiz-adv-x="1011" d="M39 -471l321 1833l-196 -53l-12 41l364 116l41 -34l-113 -641l-18 -46l287 246q55 -10 102 -35.5t82 -70.5t55.5 -108.5t20.5 -145.5q0 -92 -23.5 -180.5t-69.5 -166t-114 -140t-158 -101.5l-159 -74q-35 4 -74 17.5t-70 29.5l-6 -61l-78 -426h-182zM332 152 q49 -39 110.5 -61.5t106.5 -24.5q66 31 108.5 85t69.5 118.5t37 135t10 136.5q0 133 -45 206.5t-111 96.5l-192 -152z" />
<glyph unicode="&#xff;" horiz-adv-x="937" d="M-18 -481l38 190h191l250 324l-148 -29l-123 862l-182 -65l-18 35l323 157l70 -35l104 -880l344 635l-149 174l172 104l74 -88l-31 -221l-350 -621l-328 -542h-237zM387 1204l6 96l35 76l64 13l92 -13v-90l-35 -82l-60 -12zM729 1204l6 96l37 76l64 13l92 -13l-2 -90 l-35 -82l-60 -12z" />
<glyph unicode="&#x152;" horiz-adv-x="1900" d="M109 580q0 123 32.5 249.5t104 241.5t185.5 206t278 142l159 51q12 0 58.5 -5t97.5 -11t97 -13t59 -9l766 4l-29 -363h-45l-88 295l-471 4l-92 -600l247 4l129 232h39l-55 -265l-31 -262h-39l-53 230l-248 4l-100 -652l504 3l174 317h49l-76 -385l-817 4l-291 -39 q-123 0 -223 44t-172 125t-110.5 194.5t-38.5 253.5zM344 612q0 -135 29.5 -237.5t82 -173t122 -109.5t149.5 -47l172 21l199 1292q-12 4 -56.5 10t-93.5 12t-94 10.5t-59 4.5q-102 -33 -186.5 -109t-142.5 -180.5t-90 -231t-32 -262.5z" />
<glyph unicode="&#x153;" horiz-adv-x="1519" d="M78 367q0 92 25.5 177t74.5 158.5t121 133t166 100.5l131 55q98 0 181 -55t122 -166q43 51 111.5 97t152.5 77l117 47q86 -16 143.5 -65t57.5 -152q0 -35 -8.5 -75t-30.5 -91l-518 -159q-2 -8 -2 -15.5v-13.5q2 -74 22.5 -129t52 -92t71.5 -58.5t81 -29.5 q25 12 58.5 29.5t67.5 36t65.5 37.5t54.5 36l26 -35q-47 -35 -114.5 -83t-139.5 -91l-112 -72q-96 4 -175 60.5t-120 154.5q-82 -102 -213 -159l-133 -56q-68 0 -129.5 25.5t-107.5 76t-72.5 124t-26.5 172.5zM276 412q0 -90 18.5 -153.5t48.5 -106.5t69 -67t82 -32 q70 25 115.5 81t73.5 129t40 152t12 146q0 90 -16.5 152.5t-46 103.5t-70.5 62.5t-88 29.5q-68 -25 -114 -81t-73.5 -125.5t-39 -146.5t-11.5 -144zM922 508q0 -6 4 -14l329 127q14 35 18.5 64.5t4.5 59.5q0 72 -32 109t-81 47q-106 -53 -168.5 -156.5t-74.5 -236.5z" />
<glyph unicode="&#x178;" horiz-adv-x="1259" d="M154 1389l8 47l235 -4l281 4v-47l-170 -19l254 -668v-40l436 708l-174 19l8 47l215 -4l150 4v-47l-109 -17l-491 -782l-80 -524l201 -19l-13 -49l-305 4l-307 -4v49l211 19l80 522l-314 784zM584 1597l6 101l37 80l63 8l98 -8l-2 -92l-34 -89l-66 -10zM981 1597l4 101 l39 80l63 8l97 -8l-2 -92l-35 -89l-64 -10z" />
<glyph unicode="&#x2c6;" horiz-adv-x="1017" d="M252 1118l278 365h93l145 -365h-51l-168 211h-4l-240 -211h-53z" />
<glyph unicode="&#x2dc;" horiz-adv-x="1028" d="M176 1192l94 211l127 43l314 -148l106 144h29l-98 -217l-123 -37l-318 149l-100 -145h-31z" />
<glyph unicode="&#x2000;" horiz-adv-x="957" />
<glyph unicode="&#x2001;" horiz-adv-x="1915" />
<glyph unicode="&#x2002;" horiz-adv-x="957" />
<glyph unicode="&#x2003;" horiz-adv-x="1915" />
<glyph unicode="&#x2004;" horiz-adv-x="638" />
<glyph unicode="&#x2005;" horiz-adv-x="478" />
<glyph unicode="&#x2006;" horiz-adv-x="319" />
<glyph unicode="&#x2007;" horiz-adv-x="319" />
<glyph unicode="&#x2008;" horiz-adv-x="239" />
<glyph unicode="&#x2009;" horiz-adv-x="383" />
<glyph unicode="&#x200a;" horiz-adv-x="106" />
<glyph unicode="&#x2010;" horiz-adv-x="794" d="M102 516l17 98h624l-16 -98h-625z" />
<glyph unicode="&#x2011;" horiz-adv-x="794" d="M102 516l17 98h624l-16 -98h-625z" />
<glyph unicode="&#x2012;" horiz-adv-x="794" d="M102 516l17 98h624l-16 -98h-625z" />
<glyph unicode="&#x2013;" horiz-adv-x="1241" d="M123 530l16 82h1020l-12 -82h-1024z" />
<glyph unicode="&#x2014;" horiz-adv-x="1822" d="M143 530l17 82h1581l-15 -82h-1583z" />
<glyph unicode="&#x2018;" horiz-adv-x="452" d="M182 940l11 115l32 98l211 311l45 -18q-8 -12 -33.5 -55t-52 -90.5t-48 -88.5t-23.5 -51l114 -8l-12 -117l-35 -96l-143 -8z" />
<glyph unicode="&#x2019;" horiz-adv-x="475" d="M207 938q8 14 32.5 57t51 90.5t48 88t23.5 51.5l-112 8l10 115l35 98l143 8l66 -8l-10 -115l-33 -98l-213 -313z" />
<glyph unicode="&#x201a;" horiz-adv-x="493" d="M35 -276q8 14 32.5 56t51 90t48 89t23.5 51l-112 6l10 119l37 94l141 13l66 -13l-8 -110l-35 -103l-213 -311z" />
<glyph unicode="&#x201c;" horiz-adv-x="786" d="M182 940l11 113l32 100l211 311l45 -18q-8 -14 -33.5 -57t-52 -90.5t-48 -88.5t-23.5 -51l114 -6l-12 -117l-35 -96l-143 -8zM514 940l10 113l33 100l213 311l41 -18q-6 -10 -18.5 -32.5t-30 -52.5t-34.5 -62.5t-32.5 -61.5t-27 -50.5t-11.5 -27.5l111 -6l-8 -117 l-39 -96l-139 -8z" />
<glyph unicode="&#x201d;" horiz-adv-x="815" d="M207 940q8 14 32.5 57t51 90.5t48 88.5t23.5 51l-112 6l10 117l35 96l141 10l68 -10l-10 -113l-33 -100l-213 -311zM539 940q4 8 17 31.5t30.5 53.5t35 62.5t33 61.5t25.5 50.5t12 27.5l-110 6l10 117l37 96l139 10l68 -10l-11 -113l-30 -100l-215 -311z" />
<glyph unicode="&#x201e;" horiz-adv-x="827" d="M35 -276q8 14 32.5 56t51 90t48 89t23.5 51l-112 6l10 119l37 94l141 13l66 -13l-8 -110l-35 -103l-213 -311zM367 -276q8 14 32.5 56t51 90t48 89t23.5 51l-112 6l10 119l37 94l141 13l66 -13l-11 -110l-30 -103l-215 -311z" />
<glyph unicode="&#x2022;" horiz-adv-x="550" d="M133 502l14 131l35 108l162 11l74 -11l-12 -125l-35 -114l-166 -10z" />
<glyph unicode="&#x2026;" horiz-adv-x="1536" d="M123 -2l10 121l33 100l158 10l57 -10l-10 -117l-31 -104l-158 -10zM612 -2l11 121l32 100l156 10l59 -10l-10 -117l-33 -104l-155 -10zM1102 -2l12 121l31 100l158 10l57 -10l-10 -117l-33 -104l-156 -10z" />
<glyph unicode="&#x202f;" horiz-adv-x="383" />
<glyph unicode="&#x2039;" horiz-adv-x="598" d="M72 481l452 451h64l-344 -451l186 -450h-68z" />
<glyph unicode="&#x203a;" horiz-adv-x="641" d="M63 31l343 450l-185 451h64l295 -451l-451 -450h-66z" />
<glyph unicode="&#x205f;" horiz-adv-x="478" />
<glyph unicode="&#x20ac;" horiz-adv-x="1275" d="M31 563l14 68h129q4 47 10 91t19 87h-127l14 70h133q72 180 226.5 317t408.5 217l178 57q37 -8 76 -23t77 -33.5t70.5 -39t57.5 -37.5l-105 -147q-29 25 -69.5 51.5t-86.5 51t-92 45t-83 32.5q-180 -70 -294 -201t-161 -290h659l-49 -70h-626q-6 -45 -10.5 -89t-0.5 -89 h523l-48 -68h-471q20 -199 124 -323.5t264 -153.5q45 8 93 24.5t94 37t86 42t71 37.5l24 -34q-59 -39 -156.5 -96.5t-273.5 -135.5q-111 2 -210 42t-174 115t-120 181.5t-51 241.5q0 14 2 22h-145z" />
<glyph unicode="&#x2122;" horiz-adv-x="2004" d="M215 1202v234l360 -2l353 2v-234h-41l-80 187l-145 2v-697l118 -10l-4 -39l-205 2l-209 -2l-2 39l123 10v697l-147 -2l-80 -187h-41zM979 684l88 10v692l-88 13l2 37l125 -2l168 2l250 -588l2 -51l254 639l127 -2l151 2l4 -37l-90 -13v-692l88 -10l-4 -39l-170 2l-172 -2 l-4 39l84 10v606l10 70l-288 -727h-99l-274 662l-17 69v-680l88 -10l-2 -39l-116 2l-115 -2z" />
<glyph unicode="&#x25fc;" horiz-adv-x="993" d="M0 0v993h993v-993h-993z" />
</font>
</defs>
</svg>
